<svg width="187" height="109" viewBox="0 0 187 109" fill="none" xmlns="http://www.w3.org/2000/svg">
<path d="M40.9631 79.8027C46.2189 79.8027 45.9235 89.7075 51.4695 89.7075C57.0156 89.7075 56.7253 79.8027 61.9759 79.8027C67.2265 79.8027 66.9362 89.7075 72.4823 89.7075C78.0283 89.7075 77.738 79.8027 82.9886 79.8027C88.2392 79.8027 87.949 89.7075 93.495 89.7075C99.0411 89.7075 98.7508 79.8027 104.001 79.8027C109.257 79.8027 108.962 89.7075 114.508 89.7075C120.054 89.7075 119.764 79.8027 125.014 79.8027C130.265 79.8027 129.974 89.7075 135.521 89.7075C141.067 89.7075 140.776 79.8027 146.027 79.8027" stroke="white" stroke-miterlimit="10"/>
<path d="M70.1451 28.738C70.1451 30.4138 70.0103 31.8206 69.7356 32.9637C69.4609 34.1068 69.0566 35.0274 68.5124 35.7257C67.9733 36.4239 67.3099 36.9256 66.5168 37.2308C65.729 37.536 64.8168 37.6911 63.7905 37.6911C62.8419 37.6911 62.0386 37.6549 61.3751 37.5773C60.7116 37.5049 60.0637 37.3756 59.4314 37.1946V20.2865C60.0637 20.1055 60.7116 19.9762 61.3751 19.9038C62.0386 19.8314 62.8471 19.79 63.7905 19.79C64.8219 19.79 65.729 19.9451 66.5168 20.2503C67.3047 20.5555 67.9681 21.0572 68.5124 21.7554C69.0514 22.4537 69.4609 23.3692 69.7356 24.5174C70.0051 25.6553 70.1451 27.0622 70.1451 28.738ZM67.1544 28.738C67.1544 27.3466 67.0714 26.1881 66.9056 25.2726C66.7397 24.3519 66.5117 23.6278 66.2214 23.095C65.9311 22.5623 65.5787 22.1899 65.164 21.9778C64.7494 21.7606 64.2932 21.6572 63.7957 21.6572H62.4273V35.8291H63.7957C64.2932 35.8291 64.7494 35.7205 65.164 35.5084C65.5787 35.2912 65.9311 34.9188 66.2214 34.3912C66.5117 33.8637 66.7397 33.1344 66.9056 32.2137C67.0714 31.2827 67.1544 30.1293 67.1544 28.738Z" fill="#F0891A"/>
<path d="M75.9961 20.0373V37.4419H73.0054V20.0373H75.9961Z" fill="#F0891A"/>
<path d="M82.325 33.0869L81.2313 37.4368H78.1162L82.5997 20.0321H86.3368L90.8203 37.4368H87.7052L86.6115 33.0869H82.325ZM84.5175 24.0148H84.419L82.7241 31.1008H86.1865L84.5175 24.0148Z" fill="#F0891A"/>
<path d="M95.9256 35.4506H102.031V37.4419H92.9401V20.0373H95.9308V35.4506H95.9256Z" fill="#F0891A"/>
<path d="M109.132 19.7838C109.998 19.7838 110.781 19.939 111.486 20.2442C112.191 20.5493 112.792 21.051 113.289 21.7493C113.787 22.4476 114.176 23.363 114.445 24.5113C114.72 25.6543 114.855 27.0664 114.855 28.737C114.855 30.4128 114.72 31.8197 114.445 32.9627C114.171 34.1058 113.787 35.0265 113.289 35.7247C112.792 36.423 112.191 36.9247 111.486 37.2298C110.781 37.535 109.993 37.6902 109.132 37.6902C108.251 37.6902 107.458 37.535 106.753 37.2298C106.048 36.9247 105.447 36.423 104.95 35.7247C104.452 35.0265 104.068 34.111 103.804 32.9627C103.54 31.8197 103.405 30.4128 103.405 28.737C103.405 27.0612 103.54 25.6543 103.804 24.5113C104.068 23.3682 104.452 22.4476 104.95 21.7493C105.447 21.051 106.048 20.5545 106.753 20.2442C107.458 19.939 108.251 19.7838 109.132 19.7838ZM109.132 35.9471C109.48 35.9471 109.817 35.8385 110.143 35.6264C110.465 35.4092 110.76 35.0316 111.014 34.4834C111.273 33.9351 111.48 33.2007 111.636 32.2697C111.791 31.3438 111.874 30.1646 111.874 28.737C111.874 27.3095 111.797 26.1354 111.636 25.2044C111.48 24.2785 111.268 23.5389 111.014 22.9906C110.755 22.4424 110.465 22.0648 110.143 21.8476C109.822 21.6303 109.485 21.5269 109.132 21.5269C108.785 21.5269 108.448 21.6355 108.122 21.8476C107.8 22.0648 107.505 22.4424 107.251 22.9906C106.992 23.5389 106.784 24.2734 106.629 25.2044C106.473 26.1354 106.391 27.3095 106.391 28.737C106.391 30.1646 106.468 31.3387 106.629 32.2697C106.784 33.1955 106.992 33.9351 107.251 34.4834C107.51 35.0316 107.8 35.4092 108.122 35.6264C108.448 35.8385 108.785 35.9471 109.132 35.9471Z" fill="#F0891A"/>
<path d="M127.569 37.1885C127.186 37.323 126.641 37.4367 125.937 37.535C125.232 37.6333 124.402 37.685 123.459 37.685C122.365 37.685 121.417 37.5454 120.619 37.2609C119.82 36.9816 119.162 36.5006 118.639 35.8178C118.115 35.1403 117.731 34.2248 117.483 33.0714C117.234 31.918 117.109 30.4749 117.109 28.7318C117.109 26.994 117.234 25.5457 117.483 24.3923C117.731 23.2389 118.099 22.3234 118.592 21.6459C119.084 20.9683 119.691 20.4873 120.422 20.2028C121.152 19.9235 121.997 19.7787 122.961 19.7787C123.842 19.7787 124.63 19.8304 125.33 19.9287C126.03 20.027 126.569 20.1459 126.947 20.2752V21.6407H123.708C123.174 21.6407 122.692 21.7493 122.251 21.9614C121.811 22.1786 121.427 22.551 121.106 23.0786C120.784 23.6113 120.53 24.3354 120.359 25.2561C120.183 26.1768 120.1 27.3302 120.1 28.7215C120.1 30.1128 120.194 31.2714 120.375 32.1921C120.556 33.1127 120.815 33.8369 121.147 34.3696C121.479 34.9023 121.883 35.2747 122.355 35.4868C122.827 35.704 123.366 35.8075 123.962 35.8075H124.584V27.9922H127.574V37.1885H127.569Z" fill="#F0891A"/>
<path d="M62.2867 59.5895H68.123V61.4929H59.4255V44.8538H68.123V46.7571H62.2867V51.8673H67.4077V53.7707H62.2867V59.5895Z" fill="#F0891A"/>
<path d="M72.6531 44.8538L74.9181 51.0346L77.1832 44.8538H80.1635L77.064 52.938L80.5212 61.4981H77.5408L74.9181 54.7224L72.2954 61.4981H69.3151L72.7723 52.938L69.6727 44.8538H72.6531Z" fill="#F0891A"/>
<path d="M85.2795 61.4929H82.4183V45.0917C83.0196 44.9158 83.6416 44.7969 84.2739 44.7245C84.9115 44.6521 85.6786 44.6158 86.5856 44.6158C87.5705 44.6158 88.4153 44.7245 89.1202 44.9469C89.8252 45.1693 90.4057 45.5158 90.8618 45.9917C91.3127 46.4675 91.6496 47.083 91.8622 47.833C92.0747 48.5881 92.1835 49.4933 92.1835 50.5536C92.1835 51.6811 92.0799 52.6328 91.8725 53.419C91.6652 54.2052 91.3542 54.8414 90.9447 55.3327C90.5301 55.8241 90.0221 56.181 89.4209 56.4034C88.8144 56.6258 88.1095 56.7344 87.3009 56.7344C87.2076 56.7344 87.0729 56.7241 86.907 56.7086C86.7411 56.693 86.5597 56.6724 86.3731 56.6465C86.1814 56.6206 85.9896 56.5999 85.7874 56.5741C85.5905 56.5482 85.4194 56.5224 85.2743 56.4913V61.4929H85.2795ZM86.5908 54.8362C87.0366 54.8362 87.4305 54.769 87.7674 54.6345C88.1095 54.5 88.3946 54.2724 88.6278 53.9466C88.8559 53.6207 89.0321 53.1863 89.1513 52.638C89.2706 52.0897 89.3276 51.3967 89.3276 50.5588C89.3276 49.7519 89.2706 49.0795 89.1513 48.5519C89.0321 48.0192 88.8559 47.5951 88.6278 47.2796C88.3998 46.964 88.1095 46.7365 87.7674 46.602C87.4253 46.4675 87.0314 46.4003 86.5908 46.4003H85.2795V54.8414H86.5908V54.8362Z" fill="#F0891A"/>
<path d="M97.5483 59.5895H103.385V61.4929H94.6871V44.8538H103.385V46.7571H97.5483V51.8673H102.669V53.7707H97.5483V59.5895Z" fill="#F0891A"/>
<path d="M115.772 50.3208C115.772 51.1277 115.71 51.8208 115.58 52.4001C115.451 52.9794 115.275 53.4707 115.046 53.8742C114.818 54.2776 114.539 54.6138 114.212 54.8828C113.885 55.1517 113.533 55.3741 113.149 55.55L116.368 61.4929H113.149L110.408 56.1448H108.858V61.4929H105.997V45.0917C106.598 44.9158 107.22 44.7969 107.852 44.7245C108.49 44.6521 109.257 44.6158 110.164 44.6158C111.149 44.6158 111.994 44.7245 112.698 44.9365C113.403 45.1486 113.984 45.49 114.44 45.9451C114.891 46.4054 115.228 46.9951 115.44 47.714C115.668 48.4381 115.772 49.3071 115.772 50.3208ZM110.174 54.2414C110.62 54.2414 111.014 54.1793 111.351 54.05C111.693 53.9207 111.978 53.7035 112.211 53.3983C112.439 53.088 112.616 52.6846 112.735 52.188C112.854 51.6863 112.911 51.0656 112.911 50.3208C112.911 49.576 112.854 48.9554 112.735 48.4537C112.616 47.9519 112.439 47.5485 112.211 47.2433C111.983 46.933 111.693 46.7158 111.351 46.5916C111.009 46.4623 110.615 46.4003 110.174 46.4003H108.863V54.2466H110.174V54.2414Z" fill="#F0891A"/>
<path d="M117.322 44.8538H127.564V46.7571H123.873V61.4981H121.012V46.7571H117.322V44.8538Z" fill="#F0891A"/>
</svg>
