<svg width="55" height="35" viewBox="0 0 55 35" fill="none" xmlns="http://www.w3.org/2000/svg">
<path d="M8.89108 7.93787C8.89108 9.27544 8.78369 10.3983 8.56481 11.3107C8.34592 12.2231 8.02378 12.9579 7.59014 13.5152C7.16063 14.0725 6.632 14.473 6.00012 14.7166C5.37237 14.9601 4.6455 15.084 3.82777 15.084C3.07199 15.084 2.43185 15.0551 1.90322 14.9932C1.37459 14.9354 0.858345 14.8321 0.354492 14.6877V1.19222C0.858345 1.04773 1.37459 0.944518 1.90322 0.886722C2.43185 0.828925 3.07612 0.795898 3.82777 0.795898C4.64963 0.795898 5.37237 0.919749 6.00012 1.16332C6.62787 1.40689 7.1565 1.80734 7.59014 2.36466C8.01965 2.92198 8.34592 3.65269 8.56481 4.56917C8.77956 5.4774 8.89108 6.6003 8.89108 7.93787ZM6.5081 7.93787C6.5081 6.82736 6.44202 5.90262 6.30986 5.17191C6.17771 4.43707 5.99599 3.8591 5.76471 3.43389C5.53343 3.00867 5.2526 2.71143 4.9222 2.54217C4.59181 2.36879 4.22837 2.28622 3.8319 2.28622H2.7416V13.5978H3.8319C4.22837 13.5978 4.59181 13.5111 4.9222 13.3418C5.2526 13.1684 5.53343 12.8712 5.76471 12.4501C5.99599 12.029 6.17771 11.4469 6.30986 10.7121C6.44202 9.969 6.5081 9.04839 6.5081 7.93787Z" fill="#F0891A"/>
<path d="M13.5529 0.99292V14.8847H11.1699V0.99292H13.5529Z" fill="#F0891A"/>
<path d="M18.5957 11.4089L17.7243 14.8808H15.2422L18.8146 0.989014H21.7923L25.3647 14.8808H22.8826L22.0112 11.4089H18.5957ZM20.3427 4.16781H20.2642L18.9137 9.8236H21.6725L20.3427 4.16781Z" fill="#F0891A"/>
<path d="M29.4326 13.2953H34.2976V14.8847H27.0537V0.99292H29.4367V13.2953H29.4326Z" fill="#F0891A"/>
<path d="M39.9557 0.790771C40.6454 0.790771 41.269 0.914621 41.8307 1.15819C42.3923 1.40176 42.8714 1.80221 43.2679 2.35953C43.6644 2.91685 43.9741 3.64756 44.1889 4.56405C44.4078 5.4764 44.5151 6.60343 44.5151 7.93688C44.5151 9.27445 44.4078 10.3973 44.1889 11.3097C43.97 12.2221 43.6644 12.9569 43.2679 13.5142C42.8714 14.0715 42.3923 14.472 41.8307 14.7156C41.269 14.9591 40.6412 15.083 39.9557 15.083C39.2536 15.083 38.6217 14.9591 38.06 14.7156C37.4984 14.472 37.0193 14.0715 36.6228 13.5142C36.2263 12.9569 35.9207 12.2262 35.7101 11.3097C35.4995 10.3973 35.3921 9.27445 35.3921 7.93688C35.3921 6.5993 35.4995 5.4764 35.7101 4.56405C35.9207 3.65169 36.2263 2.91685 36.6228 2.35953C37.0193 1.80221 37.4984 1.40589 38.06 1.15819C38.6217 0.914621 39.2536 0.790771 39.9557 0.790771ZM39.9557 13.6917C40.2324 13.6917 40.5008 13.605 40.761 13.4358C41.0171 13.2624 41.2525 12.961 41.4548 12.5234C41.6613 12.0858 41.8265 11.4996 41.9504 10.7565C42.0743 10.0175 42.1404 9.07629 42.1404 7.93688C42.1404 6.79746 42.0785 5.86034 41.9504 5.11724C41.8265 4.37827 41.6572 3.78793 41.4548 3.35032C41.2483 2.91272 41.0171 2.61136 40.761 2.43797C40.505 2.26458 40.2365 2.18201 39.9557 2.18201C39.679 2.18201 39.4105 2.26871 39.1503 2.43797C38.8943 2.61136 38.6589 2.91272 38.4565 3.35032C38.25 3.78793 38.0848 4.37414 37.9609 5.11724C37.837 5.86034 37.7709 6.79746 37.7709 7.93688C37.7709 9.07629 37.8329 10.0134 37.9609 10.7565C38.0848 11.4955 38.25 12.0858 38.4565 12.5234C38.663 12.961 38.8943 13.2624 39.1503 13.4358C39.4105 13.605 39.679 13.6917 39.9557 13.6917Z" fill="#F0891A"/>
<path d="M54.6457 14.6825C54.3401 14.7898 53.9065 14.8807 53.3448 14.9591C52.7831 15.0375 52.1223 15.0788 51.3707 15.0788C50.4993 15.0788 49.7435 14.9674 49.1075 14.7403C48.4715 14.5174 47.947 14.1334 47.5299 13.5885C47.1127 13.0477 46.8071 12.317 46.6089 11.3964C46.4106 10.4758 46.3115 9.32396 46.3115 7.93272C46.3115 6.54561 46.4106 5.38968 46.6089 4.46907C46.8071 3.54846 47.1003 2.81775 47.4927 2.27694C47.885 1.73613 48.3682 1.3522 48.9506 1.12514C49.5329 0.902214 50.2061 0.786621 50.9742 0.786621C51.6763 0.786621 52.3041 0.827903 52.8616 0.906341C53.4191 0.984779 53.8487 1.07973 54.1501 1.18294V2.27281H51.5689C51.1436 2.27281 50.7595 2.35951 50.4084 2.52877C50.0574 2.70216 49.7518 2.99939 49.4957 3.42048C49.2396 3.8457 49.0373 4.42366 48.901 5.1585C48.7606 5.89334 48.6945 6.81395 48.6945 7.92447C48.6945 9.03498 48.7688 9.95972 48.9134 10.6946C49.0579 11.4294 49.2644 12.0074 49.5287 12.4326C49.7931 12.8578 50.1152 13.155 50.491 13.3243C50.8668 13.4977 51.2964 13.5803 51.7713 13.5803H52.2669V7.34237H54.6499V14.6825H54.6457Z" fill="#F0891A"/>
<path d="M2.62934 32.5623H7.27966V34.0816H0.349609V20.8008H7.27966V22.32H2.62934V26.3988H6.70973V27.918H2.62934V32.5623Z" fill="#F0891A"/>
<path d="M10.8892 20.8008L12.694 25.7341L14.4987 20.8008H16.8735L14.4037 27.2533L17.1584 34.0857H14.7837L12.694 28.6776L10.6042 34.0857H8.22949L10.9842 27.2533L8.51446 20.8008H10.8892Z" fill="#F0891A"/>
<path d="M20.9497 34.0815H18.6699V20.9906C19.149 20.8503 19.6446 20.7553 20.1484 20.6975C20.6564 20.6397 21.2677 20.6108 21.9904 20.6108C22.7751 20.6108 23.4483 20.6975 24.0099 20.8751C24.5716 21.0526 25.0342 21.3292 25.3976 21.709C25.7569 22.0888 26.0253 22.58 26.1947 23.1786C26.364 23.7814 26.4507 24.5038 26.4507 25.3501C26.4507 26.2501 26.3681 27.0097 26.2029 27.6372C26.0377 28.2647 25.7899 28.7725 25.4637 29.1647C25.1333 29.5569 24.7286 29.8417 24.2495 30.0193C23.7663 30.1968 23.2046 30.2835 22.5603 30.2835C22.486 30.2835 22.3786 30.2752 22.2465 30.2628C22.1143 30.2504 21.9697 30.2339 21.8211 30.2133C21.6683 30.1926 21.5155 30.1761 21.3544 30.1555C21.1974 30.1348 21.0612 30.1142 20.9455 30.0894V34.0815H20.9497ZM21.9945 28.7684C22.3497 28.7684 22.6636 28.7147 22.932 28.6074C23.2046 28.5 23.4317 28.3184 23.6176 28.0583C23.7993 27.7982 23.9397 27.4514 24.0347 27.0138C24.1297 26.5762 24.1751 26.0231 24.1751 25.3543C24.1751 24.7103 24.1297 24.1736 24.0347 23.7525C23.9397 23.3273 23.7993 22.9887 23.6176 22.7369C23.4359 22.4851 23.2046 22.3034 22.932 22.1961C22.6594 22.0888 22.3456 22.0351 21.9945 22.0351H20.9497V28.7725H21.9945V28.7684Z" fill="#F0891A"/>
<path d="M30.7255 32.5623H35.3759V34.0816H28.4458V20.8008H35.3759V22.32H30.7255V26.3988H34.8059V27.918H30.7255V32.5623Z" fill="#F0891A"/>
<path d="M45.2461 25.1644C45.2461 25.8084 45.1966 26.3616 45.0933 26.8239C44.9901 27.2863 44.8496 27.6785 44.6679 28.0005C44.4862 28.3225 44.2632 28.5909 44.003 28.8055C43.7428 29.0202 43.462 29.1977 43.1564 29.3381L45.7211 34.0815H43.1564L40.9716 29.8128H39.7368V34.0815H37.457V20.9906C37.9361 20.8503 38.4317 20.7553 38.9356 20.6975C39.4435 20.6397 40.0548 20.6108 40.7775 20.6108C41.5622 20.6108 42.2354 20.6975 42.7971 20.8668C43.3587 21.0361 43.8213 21.3085 44.1847 21.6718C44.544 22.0392 44.8125 22.5099 44.9818 23.0837C45.1635 23.6617 45.2461 24.3552 45.2461 25.1644ZM40.7858 28.2936C41.1409 28.2936 41.4548 28.2441 41.7233 28.1409C41.9958 28.0377 42.223 27.8643 42.4088 27.6207C42.5906 27.373 42.731 27.051 42.826 26.6547C42.921 26.2542 42.9664 25.7588 42.9664 25.1644C42.9664 24.5699 42.921 24.0745 42.826 23.674C42.731 23.2736 42.5906 22.9516 42.4088 22.708C42.2271 22.4603 41.9958 22.2869 41.7233 22.1879C41.4507 22.0846 41.1368 22.0351 40.7858 22.0351H39.7409V28.2977H40.7858V28.2936Z" fill="#F0891A"/>
<path d="M46.481 20.8008H54.6417V22.32H51.7012V34.0857H49.4215V22.32H46.481V20.8008Z" fill="#F0891A"/>
</svg>
