<svg width="26" height="27" viewBox="0 0 26 27" fill="none" xmlns="http://www.w3.org/2000/svg">
<path d="M13.4008 6.39716C9.87261 6.39716 6.94922 9.42386 6.94922 13.194C6.94922 16.9641 9.8222 19.9908 13.4008 19.9908C16.9795 19.9908 19.8524 16.911 19.8524 13.194C19.8524 9.47696 16.9291 6.39716 13.4008 6.39716ZM13.4008 17.5482C11.1327 17.5482 9.26777 15.5835 9.26777 13.194C9.26777 10.8045 11.1327 8.83976 13.4008 8.83976C15.669 8.83976 17.5339 10.8045 17.5339 13.194C17.5339 15.5835 15.669 17.5482 13.4008 17.5482Z" fill="#F0891A"/>
<path d="M20.1043 7.77771C20.9116 7.77771 21.566 7.08827 21.566 6.23779C21.566 5.38732 20.9116 4.69788 20.1043 4.69788C19.297 4.69788 18.6426 5.38732 18.6426 6.23779C18.6426 7.08827 19.297 7.77771 20.1043 7.77771Z" fill="#F0891A"/>
<path d="M23.8843 2.25518C22.5738 0.821468 20.7089 0.078064 18.5919 0.078064H8.20886C3.82378 0.078064 0.900391 3.15788 0.900391 7.77761V18.6632C0.900391 20.9465 1.60604 22.9112 3.01733 24.3449C4.37821 25.7255 6.19273 26.4158 8.25926 26.4158H18.5415C20.7089 26.4158 22.5234 25.6724 23.8339 24.3449C25.1947 22.9643 25.9004 20.9996 25.9004 18.7163V7.77761C25.9004 5.5474 25.1947 3.63579 23.8843 2.25518ZM23.6826 18.7163C23.6826 20.3624 23.1282 21.6899 22.221 22.5926C21.3137 23.4953 20.0536 23.9732 18.5415 23.9732H8.25926C6.74717 23.9732 5.48708 23.4953 4.57983 22.5926C3.67257 21.6368 3.21894 20.3093 3.21894 18.6632V7.77761C3.21894 6.1846 3.67257 4.85709 4.57983 3.90129C5.43668 2.99858 6.74717 2.52068 8.25926 2.52068H18.6423C20.1544 2.52068 21.4145 2.99858 22.3218 3.95439C23.1786 4.91019 23.6826 6.2377 23.6826 7.77761V18.7163Z" fill="#F0891A"/>
</svg>
