<svg width="55" height="35" viewBox="0 0 55 35" fill="none" xmlns="http://www.w3.org/2000/svg">
<path d="M8.89108 7.93775C8.89108 9.27532 8.78369 10.3982 8.56481 11.3106C8.34592 12.2229 8.02378 12.9578 7.59014 13.5151C7.16063 14.0724 6.632 14.4729 6.00012 14.7164C5.37237 14.96 4.6455 15.0839 3.82777 15.0839C3.07199 15.0839 2.43185 15.055 1.90322 14.993C1.37459 14.9352 0.858345 14.832 0.354492 14.6875V1.1921C0.858345 1.0476 1.37459 0.944396 1.90322 0.8866C2.43185 0.828803 3.07612 0.795776 3.82777 0.795776C4.64963 0.795776 5.37237 0.919627 6.00012 1.1632C6.62787 1.40677 7.1565 1.80721 7.59014 2.36453C8.01965 2.92186 8.34592 3.65257 8.56481 4.56905C8.77956 5.47728 8.89108 6.60018 8.89108 7.93775ZM6.5081 7.93775C6.5081 6.82724 6.44202 5.90249 6.30986 5.17178C6.17771 4.43695 5.99599 3.85898 5.76471 3.43377C5.53343 3.00855 5.2526 2.71131 4.9222 2.54205C4.59181 2.36866 4.22837 2.2861 3.8319 2.2861H2.7416V13.5977H3.8319C4.22837 13.5977 4.59181 13.511 4.9222 13.3417C5.2526 13.1683 5.53343 12.8711 5.76471 12.45C5.99599 12.0289 6.17771 11.4468 6.30986 10.712C6.44202 9.96888 6.5081 9.04827 6.5081 7.93775Z" fill="white"/>
<path d="M13.5529 0.993042V14.8848H11.1699V0.993042H13.5529Z" fill="white"/>
<path d="M18.5957 11.4087L17.7243 14.8807H15.2422L18.8146 0.988892H21.7923L25.3647 14.8807H22.8826L22.0112 11.4087H18.5957ZM20.3427 4.16769H20.2642L18.9137 9.82348H21.6725L20.3427 4.16769Z" fill="white"/>
<path d="M29.4326 13.2954H34.2976V14.8848H27.0537V0.993042H29.4367V13.2954H29.4326Z" fill="white"/>
<path d="M39.9562 0.790771C40.6459 0.790771 41.2695 0.914621 41.8312 1.15819C42.3928 1.40176 42.8719 1.80221 43.2684 2.35953C43.6649 2.91685 43.9746 3.64756 44.1894 4.56405C44.4082 5.4764 44.5156 6.60343 44.5156 7.93688C44.5156 9.27445 44.4082 10.3973 44.1894 11.3097C43.9705 12.2221 43.6649 12.9569 43.2684 13.5142C42.8719 14.0715 42.3928 14.472 41.8312 14.7156C41.2695 14.9591 40.6417 15.083 39.9562 15.083C39.2541 15.083 38.6222 14.9591 38.0605 14.7156C37.4989 14.472 37.0198 14.0715 36.6233 13.5142C36.2268 12.9569 35.9212 12.2262 35.7106 11.3097C35.5 10.3973 35.3926 9.27445 35.3926 7.93688C35.3926 6.5993 35.5 5.4764 35.7106 4.56405C35.9212 3.65169 36.2268 2.91685 36.6233 2.35953C37.0198 1.80221 37.4989 1.40589 38.0605 1.15819C38.6222 0.914621 39.2541 0.790771 39.9562 0.790771ZM39.9562 13.6917C40.2329 13.6917 40.5013 13.605 40.7615 13.4358C41.0176 13.2624 41.253 12.961 41.4553 12.5234C41.6618 12.0858 41.827 11.4996 41.9509 10.7565C42.0748 10.0175 42.1409 9.07629 42.1409 7.93688C42.1409 6.79746 42.079 5.86034 41.9509 5.11724C41.827 4.37827 41.6577 3.78793 41.4553 3.35032C41.2488 2.91272 41.0176 2.61136 40.7615 2.43797C40.5054 2.26458 40.237 2.18201 39.9562 2.18201C39.6795 2.18201 39.411 2.26871 39.1508 2.43797C38.8948 2.61136 38.6594 2.91272 38.457 3.35032C38.2505 3.78793 38.0853 4.37414 37.9614 5.11724C37.8375 5.86034 37.7714 6.79746 37.7714 7.93688C37.7714 9.07629 37.8334 10.0134 37.9614 10.7565C38.0853 11.4955 38.2505 12.0858 38.457 12.5234C38.6635 12.961 38.8948 13.2624 39.1508 13.4358C39.411 13.605 39.6795 13.6917 39.9562 13.6917Z" fill="white"/>
<path d="M54.6457 14.6825C54.3401 14.7898 53.9065 14.8807 53.3448 14.9591C52.7831 15.0375 52.1223 15.0788 51.3707 15.0788C50.4993 15.0788 49.7435 14.9674 49.1075 14.7403C48.4715 14.5174 47.947 14.1334 47.5299 13.5885C47.1127 13.0477 46.8071 12.317 46.6089 11.3964C46.4106 10.4758 46.3115 9.32396 46.3115 7.93272C46.3115 6.54561 46.4106 5.38968 46.6089 4.46907C46.8071 3.54846 47.1003 2.81775 47.4927 2.27694C47.885 1.73613 48.3682 1.3522 48.9506 1.12514C49.5329 0.902214 50.2061 0.786621 50.9742 0.786621C51.6763 0.786621 52.3041 0.827903 52.8616 0.906341C53.4191 0.984779 53.8487 1.07973 54.1501 1.18294V2.27281H51.5689C51.1436 2.27281 50.7595 2.35951 50.4084 2.52877C50.0574 2.70216 49.7518 2.99939 49.4957 3.42048C49.2396 3.8457 49.0373 4.42366 48.901 5.1585C48.7606 5.89334 48.6945 6.81395 48.6945 7.92447C48.6945 9.03498 48.7688 9.95972 48.9134 10.6946C49.0579 11.4294 49.2644 12.0074 49.5287 12.4326C49.7931 12.8578 50.1152 13.155 50.491 13.3243C50.8668 13.4977 51.2964 13.5803 51.7713 13.5803H52.2669V7.34237H54.6499V14.6825H54.6457Z" fill="white"/>
<path d="M2.62934 32.5622H7.27966V34.0814H0.349609V20.8007H7.27966V22.3199H2.62934V26.3986H6.70973V27.9179H2.62934V32.5622Z" fill="white"/>
<path d="M10.8892 20.8007L12.694 25.734L14.4987 20.8007H16.8735L14.4037 27.2532L17.1584 34.0856H14.7837L12.694 28.6775L10.6042 34.0856H8.22949L10.9842 27.2532L8.51446 20.8007H10.8892Z" fill="white"/>
<path d="M20.9497 34.0814H18.6699V20.9905C19.149 20.8502 19.6446 20.7552 20.1484 20.6974C20.6564 20.6396 21.2677 20.6107 21.9904 20.6107C22.7751 20.6107 23.4483 20.6974 24.0099 20.8749C24.5716 21.0524 25.0342 21.329 25.3976 21.7088C25.7569 22.0887 26.0253 22.5799 26.1947 23.1785C26.364 23.7813 26.4507 24.5037 26.4507 25.35C26.4507 26.25 26.3681 27.0096 26.2029 27.6371C26.0377 28.2646 25.7899 28.7724 25.4637 29.1646C25.1333 29.5568 24.7286 29.8416 24.2495 30.0191C23.7663 30.1967 23.2046 30.2833 22.5603 30.2833C22.486 30.2833 22.3786 30.2751 22.2465 30.2627C22.1143 30.2503 21.9697 30.2338 21.8211 30.2132C21.6683 30.1925 21.5155 30.176 21.3544 30.1554C21.1974 30.1347 21.0612 30.1141 20.9455 30.0893V34.0814H20.9497ZM21.9945 28.7683C22.3497 28.7683 22.6636 28.7146 22.932 28.6073C23.2046 28.4999 23.4317 28.3183 23.6176 28.0582C23.7993 27.7981 23.9397 27.4513 24.0347 27.0137C24.1297 26.5761 24.1751 26.0229 24.1751 25.3541C24.1751 24.7101 24.1297 24.1734 24.0347 23.7524C23.9397 23.3271 23.7993 22.9886 23.6176 22.7368C23.4359 22.485 23.2046 22.3033 22.932 22.196C22.6594 22.0887 22.3456 22.035 21.9945 22.035H20.9497V28.7724H21.9945V28.7683Z" fill="white"/>
<path d="M30.725 32.5622H35.3754V34.0814H28.4453V20.8007H35.3754V22.3199H30.725V26.3986H34.8054V27.9179H30.725V32.5622Z" fill="white"/>
<path d="M45.2461 25.1642C45.2461 25.8083 45.1966 26.3615 45.0933 26.8238C44.9901 27.2862 44.8496 27.6784 44.6679 28.0004C44.4862 28.3224 44.2632 28.5907 44.003 28.8054C43.7428 29.0201 43.462 29.1976 43.1564 29.338L45.7211 34.0814H43.1564L40.9716 29.8127H39.7368V34.0814H37.457V20.9905C37.9361 20.8502 38.4317 20.7552 38.9356 20.6974C39.4435 20.6396 40.0548 20.6107 40.7775 20.6107C41.5622 20.6107 42.2354 20.6974 42.7971 20.8667C43.3587 21.0359 43.8213 21.3084 44.1847 21.6717C44.544 22.0391 44.8125 22.5097 44.9818 23.0836C45.1635 23.6615 45.2461 24.3551 45.2461 25.1642ZM40.7858 28.2935C41.1409 28.2935 41.4548 28.244 41.7233 28.1408C41.9958 28.0375 42.223 27.8642 42.4088 27.6206C42.5906 27.3729 42.731 27.0509 42.826 26.6546C42.921 26.2541 42.9664 25.7587 42.9664 25.1642C42.9664 24.5698 42.921 24.0744 42.826 23.6739C42.731 23.2735 42.5906 22.9515 42.4088 22.7079C42.2271 22.4602 41.9958 22.2868 41.7233 22.1877C41.4507 22.0845 41.1368 22.035 40.7858 22.035H39.7409V28.2976H40.7858V28.2935Z" fill="white"/>
<path d="M46.4805 20.8007H54.6412V22.3199H51.7007V34.0856H49.421V22.3199H46.4805V20.8007Z" fill="white"/>
</svg>
