<svg width="100" height="100" viewBox="0 0 100 100" fill="none" xmlns="http://www.w3.org/2000/svg">
<path d="M46.629 99.0013C32.5813 99.0013 18.522 99.0013 4.47427 99.0013C1.6277 99.0013 0.215983 97.6358 0.204412 94.8008C0.19284 83.2063 0.215984 71.6233 0.215984 60.0287C0.215984 54.3009 0.215984 48.573 0.215984 42.8336C0.215984 39.7671 1.53512 38.4364 4.57841 38.4364C29.6421 38.4364 54.6943 38.4364 79.758 38.4249C82.7665 38.4249 85.7751 38.4249 88.7952 38.4364C91.7344 38.4596 93.042 39.7787 93.042 42.741C93.0535 53.3289 93.042 63.9167 93.042 74.5046C93.042 81.2739 93.0535 88.0316 93.0535 94.8008C93.0535 97.0804 92.1047 98.4343 90.2301 98.8856C89.8251 98.9781 89.397 98.9897 88.9804 98.9897C74.8633 99.0013 60.7461 99.0013 46.629 99.0013ZM46.6174 57.4251C58.698 57.4136 70.767 57.4136 82.8475 57.4136C84.7337 57.4136 85.8908 56.3606 85.9255 54.5439C85.9603 52.5651 85.9718 50.598 85.9371 48.6193C85.9024 46.6521 84.7684 45.5644 82.8244 45.5644C79.2604 45.5644 75.708 45.5644 72.144 45.5644C51.6163 45.5644 31.1001 45.5644 10.5724 45.5644C8.4317 45.5644 7.34398 46.6406 7.33241 48.7813C7.32084 50.6211 7.32084 52.4726 7.34398 54.3124C7.36712 56.3259 8.48955 57.402 10.503 57.402C22.5373 57.4251 34.5831 57.4251 46.6174 57.4251ZM24.4928 63.4423C19.251 63.4423 14.0207 63.4423 8.77884 63.4423C7.76055 63.4423 7.18198 63.8473 7.15884 64.5763C7.1357 65.34 7.71427 65.7681 8.80198 65.7797C9.03341 65.7797 9.25327 65.7797 9.48469 65.7797C19.1584 65.7797 28.8205 65.7797 38.4943 65.7797C39.2348 65.7797 39.987 65.7913 40.7275 65.7797C41.4913 65.7681 41.9773 65.3747 41.9773 64.5994C41.9773 63.8241 41.4681 63.4539 40.7044 63.4423C40.473 63.4423 40.2531 63.4423 40.0217 63.4423C34.8377 63.4423 29.6653 63.4423 24.4928 63.4423ZM24.5738 81.5631C29.781 81.5631 34.9881 81.5631 40.1953 81.5631C40.4846 81.5631 40.8548 81.6441 41.0515 81.5053C41.4103 81.2507 41.8847 80.892 41.9194 80.5333C41.9541 80.1746 41.607 79.6654 41.283 79.3993C41.0284 79.191 40.5424 79.2373 40.1606 79.2373C30.5563 79.2257 20.952 79.2257 11.3477 79.2257C10.341 79.2257 9.34584 79.2026 8.33912 79.2604C7.64484 79.2951 7.15884 79.7233 7.18198 80.4407C7.19355 81.1466 7.64484 81.5516 8.38541 81.5631C8.6747 81.5631 8.96398 81.5747 9.25327 81.5747C14.3563 81.5631 19.4593 81.5631 24.5738 81.5631ZM24.516 71.0331C28.0453 71.0447 31.5746 71.0447 35.1038 71.0447C36.9784 71.0447 38.853 71.0447 40.7391 71.0331C41.526 71.0331 41.9888 70.5934 41.9773 69.8413C41.9657 69.1354 41.4913 68.742 40.7623 68.7073C40.635 68.6957 40.5077 68.7073 40.3688 68.7073C31.3431 68.7073 22.3058 68.6957 13.2801 68.6957C11.6601 68.6957 10.0401 68.6957 8.42013 68.7073C7.65641 68.7189 7.17041 69.147 7.18198 69.9107C7.20512 70.605 7.64484 71.0216 8.38541 71.0331C8.63998 71.0331 8.90612 71.0331 9.1607 71.0331C14.2868 71.0331 19.4014 71.0331 24.516 71.0331ZM24.6086 76.2866C29.8851 76.2866 35.1501 76.2866 40.4267 76.2866C41.4913 76.2866 42.0004 75.9047 41.9888 75.141C41.9773 74.3889 41.4334 73.9607 40.4151 73.9607C29.8735 73.9607 19.332 73.9607 8.79041 73.9607C7.74898 73.9607 7.12413 74.4467 7.15884 75.1989C7.19355 75.9279 7.73741 76.2981 8.79041 76.2981C14.0554 76.2866 19.332 76.2866 24.6086 76.2866ZM24.5507 86.8281V86.8397C28.4618 86.8397 32.3845 86.8397 36.2957 86.8397C37.7884 86.8397 39.2811 86.886 40.7623 86.7818C41.1673 86.7587 41.6648 86.3306 41.8847 85.9487C42.0235 85.7057 41.8268 85.0809 41.5838 84.861C41.283 84.6064 40.7623 84.5139 40.3341 84.5139C30.6257 84.4907 20.9173 84.4907 11.2088 84.4791C10.2368 84.4791 9.26484 84.4791 8.29284 84.5254C7.61012 84.5601 7.18198 84.9767 7.18198 85.6479C7.18198 86.3537 7.59855 86.7818 8.33912 86.8166C8.5937 86.8281 8.85984 86.8281 9.11441 86.8281C14.2637 86.8281 19.413 86.8281 24.5507 86.8281ZM24.6896 89.7789C24.6896 89.7904 24.6896 89.7904 24.6896 89.802C20.2808 89.802 15.8837 89.802 11.475 89.802C10.4104 89.802 9.33427 89.7789 8.26969 89.802C7.57541 89.8251 7.18198 90.2764 7.17041 90.9244C7.15884 91.584 7.57541 92.0006 8.24655 92.0816C8.46641 92.1163 8.69784 92.1047 8.92927 92.1047C19.3898 92.1047 29.8388 92.1047 40.2994 92.1047C40.5887 92.1047 40.959 92.1626 41.1441 92.0121C41.4797 91.7344 41.9425 91.2947 41.9194 90.9591C41.8847 90.5657 41.445 90.126 41.0747 89.8599C40.8317 89.6863 40.3804 89.7789 40.0333 89.7789C34.9187 89.7789 29.8041 89.7789 24.6896 89.7789ZM83.8543 69.9339C83.8658 66.2773 80.9151 63.315 77.2933 63.3266C73.6714 63.3381 70.8133 66.2194 70.7901 69.876C70.7785 73.5094 73.683 76.4486 77.2817 76.4486C80.892 76.437 83.8427 73.5094 83.8543 69.9339ZM71.9935 85.6363C71.982 88.5754 74.3888 91.017 77.328 91.0286C80.1861 91.0401 82.6508 88.5986 82.674 85.7289C82.6971 82.8476 80.2903 80.3829 77.4205 80.3481C74.4583 80.3134 72.0051 82.6971 71.9935 85.6363Z" fill="#F18610"/>
<path d="M9.83121 37.1751C8.40793 37.1751 7.08879 37.1751 5.73493 37.1751C5.73493 35.4163 5.61922 33.6574 5.80436 31.9449C5.86222 31.3663 6.60279 30.7183 7.19293 30.3827C12.4464 27.3857 17.7229 24.4466 22.9995 21.4959C24.2376 20.8016 25.4526 20.0379 26.7255 19.4246C27.385 19.1121 28.1719 19.0774 28.8893 18.8807C29.1902 18.7997 29.5026 18.6956 29.7687 18.5451C34.6519 15.8259 39.5234 13.0719 44.4182 10.3757C44.9042 10.1096 45.5522 10.1211 46.1307 9.98229C46.3737 9.92443 46.6283 9.87815 46.8481 9.75086C50.4931 7.71429 54.1266 5.68929 57.7484 3.618C58.0377 3.456 58.3038 3.03943 58.3617 2.69229C58.5468 1.674 59.1486 0.93343 60.109 0.725145C60.9884 0.52843 61.972 0.979715 62.4233 1.77814C62.863 2.565 62.7473 3.64114 62.134 4.31229C61.486 5.02972 60.5487 5.157 59.5536 4.79829C59.218 4.68257 58.732 4.671 58.4311 4.833C54.8093 6.82329 51.199 8.84829 47.6003 10.8849C47.2994 11.0584 47.1259 11.4403 46.8713 11.6949C46.5357 12.0304 46.2117 12.4123 45.8067 12.6321C40.9352 15.3861 36.052 18.0939 31.1805 20.8479C30.7986 21.0677 30.5325 21.5074 30.1969 21.8314C29.7803 22.2249 29.3985 22.6877 28.9125 22.9539C22.8375 26.3906 16.7393 29.8041 10.6412 33.183C10.0164 33.5301 9.75021 33.912 9.80807 34.6179C9.8775 35.451 9.83121 36.261 9.83121 37.1751Z" fill="#AF4C17"/>
<path d="M94.165 55.4927C94.165 51.4427 94.165 47.5084 94.165 43.4584C95.3685 43.4584 96.5256 43.389 97.6712 43.4816C98.5044 43.5394 99.0482 44.1064 99.0482 44.9743C99.0714 47.9828 99.0829 50.9914 99.0367 54C99.0251 54.891 98.4697 55.4464 97.5555 55.4811C96.4678 55.5274 95.3685 55.4927 94.165 55.4927Z" fill="#AF4C17"/>
<path d="M53.9082 37.1751C51.0732 37.1751 48.3424 37.1751 45.5074 37.1751C45.5074 35.9717 45.438 34.7799 45.5306 33.5996C45.6 32.697 46.2827 32.2458 47.1506 32.2342C48.8631 32.211 50.5872 32.1995 52.2998 32.2573C53.2371 32.2805 53.8619 32.8706 53.9082 33.7616C53.9545 34.8724 53.9082 35.9949 53.9082 37.1751Z" fill="#AF4C17"/>
<path d="M70.2244 37.152C70.2244 35.9717 70.1897 34.8493 70.236 33.7269C70.2707 32.8012 70.8724 32.292 71.7402 32.2573C73.5107 32.1995 75.2926 32.1995 77.0746 32.2458C77.9888 32.2689 78.5789 32.9053 78.6136 33.7963C78.6483 34.884 78.6252 35.9833 78.6252 37.152C75.8249 37.152 73.0941 37.152 70.2244 37.152Z" fill="#AF4C17"/>
<path d="M66.1967 37.1636C63.3964 37.1636 60.6655 37.1636 57.8189 37.1636C57.8189 35.9601 57.7495 34.7682 57.8421 33.588C57.9115 32.7548 58.5479 32.2688 59.3811 32.2457C61.1284 32.1994 62.8757 32.1878 64.6114 32.2225C65.433 32.2457 66.0925 32.6854 66.162 33.5417C66.2661 34.7335 66.1967 35.9254 66.1967 37.1636Z" fill="#AF4C17"/>
<path d="M48.6773 49.0474C48.6773 48.411 48.6773 47.844 48.6773 47.1844C49.0476 47.1613 49.3484 47.1381 49.7419 47.115C49.7766 47.7746 49.8113 48.3647 49.846 49.0359C51.1883 49.0359 52.4959 49.0359 53.896 49.0359C53.896 48.4226 53.896 47.8209 53.896 47.1844C54.2894 47.1844 54.5903 47.1844 54.9606 47.1844C54.9606 47.8093 54.9606 48.3879 54.9606 49.0359C56.3607 49.0359 57.6914 49.0359 59.1147 49.0359C59.1147 48.411 59.1147 47.8324 59.1147 47.2076C59.4734 47.1844 59.7396 47.1613 60.0983 47.1266C60.1446 47.7746 60.1793 48.3763 60.2256 49.0359C61.5794 49.0359 62.887 49.0359 64.264 49.0359C64.2987 48.4226 64.3219 47.8324 64.3566 47.1729C64.669 47.1497 64.9583 47.1381 65.3517 47.115C65.3517 47.7514 65.3517 48.3531 65.3517 49.0243C66.7634 49.0243 68.071 49.0243 69.4827 49.0243C69.4827 48.4341 69.4827 47.844 69.4827 47.1729C69.8877 47.1497 70.2001 47.1381 70.6051 47.1266C70.6051 47.7861 70.6051 48.3879 70.6051 49.0474C72.0053 49.0474 73.3129 49.0474 74.7014 49.0474C74.7014 48.4341 74.7014 47.8556 74.7014 47.196C75.0717 47.1613 75.3726 47.1381 75.7891 47.115C75.8239 47.763 75.8586 48.3647 75.8933 49.0359C77.2356 49.0359 78.5431 49.0359 79.9433 49.0359C79.9433 48.4226 79.9433 47.8209 79.9433 47.1844C80.3367 47.1844 80.6376 47.1844 80.9847 47.1844C81.0194 47.8093 81.0426 48.3763 81.0657 48.9201C81.922 49.4987 83.1717 48.5614 83.8544 49.4987C83.8313 49.6144 83.8081 49.7186 83.785 49.8343C82.9171 49.8343 82.0608 49.8343 81.1004 49.8343C81.0541 50.5054 81.0194 51.0956 80.9847 51.7551C80.6491 51.7551 80.3483 51.7551 79.978 51.7551C79.978 51.1419 79.978 50.5749 79.978 49.9153C78.6126 49.9153 77.305 49.9153 75.8817 49.9153C75.8817 50.4939 75.8817 51.084 75.8817 51.7551C75.4651 51.7783 75.1527 51.8014 74.7709 51.8246C74.7361 51.165 74.713 50.5633 74.6783 49.9037C73.3244 49.9037 72.0168 49.9037 70.6399 49.9037C70.6399 50.517 70.6399 51.084 70.6399 51.7436C70.2696 51.7667 69.9687 51.7899 69.5753 51.813C69.5406 51.1419 69.5174 50.5517 69.4827 49.8921C68.1404 49.8921 66.8329 49.8921 65.4443 49.8921C65.4443 50.4939 65.4443 51.0609 65.4443 51.7436C65.074 51.7667 64.7847 51.7783 64.4144 51.8014C64.3681 51.1303 64.3334 50.5286 64.2987 49.8806C62.9333 49.8806 61.6257 49.8806 60.2371 49.8806C60.2371 50.4939 60.2371 51.0609 60.2371 51.7436C59.8669 51.7667 59.566 51.7783 59.2073 51.8014C59.1726 51.1534 59.1494 50.5749 59.1147 49.9153C57.7956 49.9153 56.488 49.9153 55.0647 49.9153C55.03 50.4707 54.9953 51.0609 54.949 51.732C54.625 51.732 54.3357 51.732 53.9654 51.732C53.9654 51.1303 53.9654 50.5517 53.9654 49.9037C52.5884 49.9037 51.2809 49.9037 49.8576 49.9037C49.8576 50.4823 49.8576 51.084 49.8576 51.7551C49.441 51.7783 49.1286 51.7899 48.7236 51.8014C48.7236 51.1303 48.7236 50.5286 48.7236 49.8806C47.3119 49.8806 46.0043 49.8806 44.6273 49.8806C44.6273 50.5054 44.6273 51.0724 44.6273 51.7204C44.2339 51.7204 43.9099 51.7204 43.528 51.7204C43.4933 51.1071 43.4702 50.5286 43.4354 49.8921C42.1047 49.8921 40.7972 49.8921 39.4086 49.8921C39.3854 50.5054 39.3507 51.0956 39.3276 51.7436C39.0036 51.7436 38.7259 51.7436 38.3672 51.7436C38.3324 51.1187 38.2977 50.517 38.2514 49.8806C36.8976 49.8806 35.5784 49.8806 34.1899 49.8806C34.1899 50.4939 34.1899 51.0609 34.1899 51.7436C33.8196 51.7551 33.5187 51.7783 33.1484 51.7899C33.1484 51.1303 33.1484 50.5633 33.1484 49.9037C31.7367 49.9037 30.406 49.9037 29.0174 49.9037C28.9827 50.5054 28.9596 51.084 28.9249 51.7436C28.6009 51.7551 28.3 51.7783 27.9182 51.8014C27.9182 51.1534 27.9182 50.5749 27.9182 49.9153C26.5412 49.9153 25.2336 49.9153 23.8103 49.9153C23.7872 50.4707 23.764 51.0724 23.7293 51.7436C23.3822 51.7667 23.0813 51.7783 22.6763 51.8014C22.6763 51.1303 22.6763 50.5286 22.6763 49.8921C21.2646 49.8921 19.957 49.8921 18.58 49.8921C18.58 50.517 18.58 51.084 18.58 51.7436C18.2097 51.7667 17.9089 51.7899 17.4923 51.813C17.4923 51.1419 17.4923 50.5517 17.4923 49.8921C16.0806 49.8921 14.7615 49.8921 13.3497 49.8921C13.3497 50.5054 13.3497 51.1071 13.3497 51.7551C12.9679 51.7551 12.7017 51.7551 12.3199 51.7551C12.2736 51.1534 12.2273 50.5633 12.181 49.8574C11.2785 49.8574 10.3875 49.8574 9.47332 49.8574C9.38075 48.7234 10.1676 49.1863 10.5842 49.1284C11.0817 49.059 11.614 49.1169 12.1926 49.1169C12.2389 48.4341 12.2852 47.8324 12.3315 47.196C12.6555 47.196 12.9332 47.196 13.2803 47.196C13.315 47.7977 13.3497 48.3994 13.3845 49.059C14.7152 49.059 15.9996 49.059 17.3997 49.059C17.3997 48.4804 17.3997 47.8787 17.3997 47.2192C17.8163 47.1844 18.1172 47.1613 18.5337 47.1266C18.5337 47.7861 18.5337 48.3763 18.5337 49.0474C19.9455 49.0474 21.2415 49.0474 22.6532 49.0474C22.6532 48.4457 22.6532 47.844 22.6532 47.196C23.0582 47.196 23.359 47.196 23.7756 47.196C23.7756 47.8209 23.7756 48.4226 23.7756 49.0706C25.1873 49.0706 26.4949 49.0706 27.8835 49.0706C27.8835 48.4341 27.8835 47.8671 27.8835 47.2307C28.2537 47.2307 28.5546 47.2307 28.9133 47.2307C28.9596 47.844 29.0059 48.4457 29.0522 49.0821C30.4176 49.0821 31.702 49.0821 33.1022 49.0821C33.1022 48.4573 33.1022 47.8671 33.1022 47.2076C33.484 47.1844 33.7617 47.1729 34.1089 47.1497C34.1436 47.7977 34.1783 48.3994 34.213 49.059C35.5669 49.059 36.886 49.059 38.263 49.059C38.2862 48.4573 38.3209 47.8556 38.344 47.2076C38.6912 47.2076 38.992 47.2076 39.3507 47.2076C39.3507 47.8209 39.3507 48.3879 39.3507 49.0474C40.7162 49.0474 42.0237 49.0474 43.4586 49.0474C43.4817 48.4689 43.5049 47.8787 43.5396 47.2076C43.8752 47.1844 44.1876 47.1729 44.5579 47.1497C44.5926 47.8093 44.6273 48.411 44.662 49.0706C45.9696 49.0474 47.254 49.0474 48.6773 49.0474Z" fill="#AF4C17"/>
<path d="M36.2848 51.8593C37.3725 53.3752 38.3677 54.7754 39.4554 56.3028C37.2915 56.3028 35.2897 56.3028 33.1143 56.3028C34.1904 54.7985 35.1855 53.3983 36.2848 51.8593Z" fill="#AF4C17"/>
<path d="M72.7334 69.8297C72.745 67.3071 74.77 65.2821 77.2926 65.2705C79.8383 65.259 81.9211 67.3302 81.9096 69.8759C81.898 72.4332 79.8383 74.4929 77.2926 74.4929C74.7584 74.4929 72.7219 72.4101 72.7334 69.8297Z" fill="#AF4C17"/>
<path d="M77.3394 89.4085C75.3144 89.4201 73.6133 87.7538 73.5786 85.7288C73.5439 83.6922 75.2912 81.9218 77.3278 81.9449C79.3413 81.9681 81.0192 83.6459 81.0423 85.6825C81.0654 87.6728 79.3528 89.397 77.3394 89.4085Z" fill="#AF4C17"/>
</svg>
