<svg width="148" height="8" viewBox="0 0 148 8" fill="none" xmlns="http://www.w3.org/2000/svg">
<path d="M1 6.00002C7 -0.49998 8 3.00002 10 6.00002C12 9.00002 13.5 2 17.5 2C21.5 2 19 7.99998 21.5 7C24 6.00002 25 2 28 2C31 2 31 6.00002 33.5 6.00002C36 6.00002 36.5 2 39.5 2C42.5 2 41 6.00002 43.5 6.00002C46 6.00002 46 2 49.5 2C53 2 52 6.00002 56 6.00002C60 6.00002 60.2 2 65 2C71 2 67.5 6.00002 72.5 6.00002C77.5 6.00002 76 2 80.5 2C85 2 83 6.00002 86.5 6.00002C90 6.00002 89.5 2 94.5 2C99.5 2 97 6.00002 101 6.00002C105 6.00002 104 2 108.5 2C113 2 110 6.00002 113 6.00002C116 6.00002 115.5 2 118 2C120.5 2 122.5 6.00002 125 6.00002C127.5 6.00002 127.5 2 131 2C134 2 133 3.99998 136 5C139 6.00002 138 2 142 1.5C145.2 1.1 146.667 3.66667 147 5" stroke="#FFB800"/>
</svg>
