<svg width="107" height="12" viewBox="0 0 107 12" fill="none" xmlns="http://www.w3.org/2000/svg">
<path d="M0.963135 0.802673C6.21891 0.802673 5.92347 10.7075 11.4695 10.7075C17.0156 10.7075 16.7253 0.802673 21.9759 0.802673C27.2265 0.802673 26.9362 10.7075 32.4823 10.7075C38.0283 10.7075 37.738 0.802673 42.9886 0.802673C48.2392 0.802673 47.949 10.7075 53.495 10.7075C59.0411 10.7075 58.7508 0.802673 64.0014 0.802673C69.2572 0.802673 68.9617 10.7075 74.5078 10.7075C80.0538 10.7075 79.7635 0.802673 85.0141 0.802673C90.2647 0.802673 89.9745 10.7075 95.5205 10.7075C101.067 10.7075 100.776 0.802673 106.027 0.802673" stroke="white" stroke-miterlimit="10"/>
</svg>
