<svg width="144" height="132" viewBox="0 0 144 132" fill="none" xmlns="http://www.w3.org/2000/svg">
<path d="M69.7166 26.4001C68.064 25.6912 66.497 25.2757 64.9545 24.7868C51.8558 20.6312 38.7571 16.5001 25.6584 12.3568C23.8344 11.7823 21.9247 11.5746 20.0517 11.1957C19.3049 11.0368 18.6439 10.7923 18.1664 10.1812C17.7257 9.63123 17.5543 8.99567 17.9216 8.37234C18.2889 7.749 18.7051 7.11345 19.611 7.18678C19.8191 7.199 20.0149 7.22345 20.1741 7.38234C22.1817 9.27678 24.777 9.88789 27.2866 10.6946C36.9453 13.799 46.6041 16.9035 56.2751 19.9957C62.0165 21.829 67.7579 23.6501 73.5115 25.4834C74.6745 25.8501 75.8375 25.8257 77.0005 25.459C90.9194 21.059 104.826 16.659 118.745 12.259C121.242 11.4646 123.74 10.6701 126.225 9.85123C127.694 9.36234 129.028 8.65345 130.032 7.43123C130.424 6.95456 131.476 7.13789 131.721 7.68789C131.917 8.11567 132.088 8.54345 132.235 8.98345C132.541 9.87567 132.382 10.2179 131.501 10.609C130.46 11.0857 129.322 11.2446 128.22 11.5012C125.747 12.0634 123.348 12.9312 120.936 13.689C108.095 17.6979 95.2652 21.7434 82.4236 25.7768C81.9461 25.9234 81.4687 26.1068 80.9913 26.449C81.6278 26.559 82.2032 26.6201 82.7541 26.7546C85.3861 27.3901 86.9041 29.1012 87.4427 31.7168C87.6018 32.4868 87.7365 33.2812 87.6875 34.0757C87.663 34.4546 87.7977 34.5523 88.165 34.5523C89.6952 34.5401 91.2254 34.5768 92.7556 34.5768C103.773 34.6012 114.779 34.6379 125.796 34.6501C130.154 34.6501 134.329 37.7301 135.357 41.7146C135.528 42.3868 135.577 43.0712 135.577 43.7679C135.577 54.2301 135.577 64.7046 135.577 75.1668C135.577 86.6557 135.565 98.1446 135.553 109.621C135.553 111.1 135.675 112.591 135.443 114.07C134.72 118.592 130.571 122.149 125.98 122.137C123.164 122.125 120.361 122.296 117.545 122.345C116.701 122.357 116.101 122.711 115.819 123.53C115.77 123.665 115.709 123.799 115.636 123.909C115.268 124.459 114.766 124.923 114.118 124.911C113.505 124.899 113.126 124.288 112.979 123.762C112.636 122.491 111.779 122.271 110.616 122.271C103.847 122.296 97.0647 122.247 90.295 122.296C81.4197 122.357 72.5444 122.381 63.6814 122.32C55.6875 122.271 47.6936 122.308 39.6997 122.283C38.4021 122.283 38.194 122.43 37.7043 123.628C37.5452 124.031 37.3248 124.398 37.0065 124.691C36.4557 125.192 35.7212 125.156 35.2192 124.618C34.9499 124.325 34.8275 123.958 34.7296 123.579C34.448 122.601 34.1909 122.369 33.1994 122.345C30.3225 122.271 27.4457 122.271 24.5811 122.125C21.2514 121.953 18.3745 120.719 16.171 118.152C15.412 117.272 15.0938 116.233 15.0938 115.06C15.106 90.6035 15.0815 66.1346 15.1305 41.6779C15.1305 39.4534 15.9262 37.3757 17.7992 35.8846C18.9254 34.9923 20.1863 34.6257 21.5941 34.6379C27.1886 34.6379 32.7709 34.6379 38.3654 34.6379C42.6867 34.6379 47.0203 34.6379 51.3417 34.6135C55.0264 34.6012 58.7235 34.5401 62.4082 34.5279C62.8979 34.5279 62.9714 34.369 62.9591 33.9412C62.9469 32.9268 63.0815 31.9123 63.3754 30.9346C64.1343 28.3312 65.9828 27.0234 68.5659 26.5712C68.8841 26.5223 69.2269 26.4734 69.7166 26.4001Z" fill="#F1891A"/>
<path d="M75.5198 43.3404C81.2979 43.3404 87.0638 43.3282 92.8419 43.3404C95.2413 43.3404 97.6529 43.3649 100.052 43.4504C107.397 43.7071 113.249 49.7815 113.249 57.1271C113.249 70.3882 113.261 83.6371 113.273 96.8982C113.273 98.6704 113.396 100.443 113.065 102.19C112.404 105.772 110.323 108.412 107.544 110.624C105.255 112.445 102.66 113.056 99.7952 113.08C94.7639 113.117 89.7325 113.313 84.6889 113.349C81.8121 113.374 78.9353 113.643 76.0707 113.435C74.0753 113.3 72.0921 113.276 70.0967 113.264C65.3591 113.239 60.6338 113.313 55.8962 113.276C53.6805 113.264 51.4525 113.325 49.2367 113.08C42.467 112.31 37.2765 106.468 37.2765 99.6604C37.2765 89.4549 37.2275 79.2616 37.2275 69.056C37.2275 64.8882 37.2398 60.7082 37.35 56.5404C37.5091 50.5882 41.4999 45.5893 47.2291 43.9027C49.2857 43.3038 51.379 43.3038 53.4724 43.3038C60.8174 43.2915 68.1625 43.3038 75.5076 43.3038C75.5198 43.3282 75.5198 43.3404 75.5198 43.3404Z" fill="#7AB9E6"/>
<path d="M128.159 77.159C127.547 80.0923 125.197 82.2557 122.234 82.3534C119.247 82.4512 116.64 80.2512 116.064 77.3301C115.428 74.1279 117.386 71.0968 120.52 70.3512C123.74 69.5812 127.021 71.3779 127.963 74.4457C128.049 74.739 128.184 75.0201 128.159 75.3379C128.196 75.949 128.171 76.5601 128.159 77.159Z" fill="#8F5418"/>
<path d="M128.172 58.2265C128.196 60.3532 126.36 62.7487 124.095 63.6165C120.349 65.0587 116.517 62.1743 116.064 58.5932C115.636 55.0976 117.913 52.2254 121.292 51.8099C123.96 51.4799 126.764 53.0443 127.706 55.5621C127.951 56.2221 128.208 56.8943 128.159 57.6276C128.098 57.8232 128.098 58.031 128.172 58.2265Z" fill="#8F5418"/>
<path d="M27.7893 57.5179C26.2714 57.5179 25.1084 56.3934 25.1084 54.939C25.1084 53.4845 26.3203 52.2379 27.7159 52.2501C29.2339 52.2623 30.5315 53.4723 30.5193 54.9023C30.5193 56.3445 29.2951 57.5179 27.7893 57.5179Z" fill="#8F5418"/>
<path d="M25.1191 67.0023C25.1191 65.5601 26.3311 64.3501 27.7511 64.3501C29.2324 64.3501 30.5055 65.5968 30.4933 67.0512C30.481 68.4568 29.2446 69.679 27.8123 69.6912C26.38 69.6912 25.1191 68.4323 25.1191 67.0023Z" fill="#8F5418"/>
<path d="M30.4688 79.0781C30.4198 80.6182 29.2446 81.8526 27.8858 81.7793C26.4535 81.706 25.0579 80.2759 25.1191 78.9437C25.1803 77.6604 26.6983 76.2792 27.9837 76.3403C29.3793 76.4014 30.5178 77.6604 30.4688 79.0781Z" fill="#8F5418"/>
<path d="M31.6575 104.427C32.9306 104.427 32.9306 104.427 32.9306 105.686C32.9306 106.725 32.9306 106.725 31.8533 106.725C30.3721 106.725 30.3721 106.725 30.3721 105.233C30.3721 104.427 30.3721 104.427 31.1678 104.427C31.3269 104.427 31.4983 104.427 31.6575 104.427Z" fill="#100F0E"/>
<path d="M126.445 106.724C125.221 106.724 125.221 106.724 125.221 105.527C125.221 104.427 125.221 104.427 126.347 104.427C127.792 104.427 127.792 104.427 127.779 105.832C127.779 106.871 127.926 106.712 126.861 106.724C126.727 106.724 126.592 106.724 126.445 106.724Z" fill="#100F0E"/>
<path d="M118.134 104.427C119.419 104.427 119.419 104.427 119.419 105.735C119.419 106.725 119.419 106.725 118.416 106.725C116.824 106.725 116.824 106.725 116.824 105.343C116.824 104.427 116.824 104.427 117.767 104.427C117.889 104.427 118.012 104.427 118.134 104.427Z" fill="#100F0E"/>
<path d="M23.2341 106.725C21.9609 106.725 21.9609 106.725 21.9609 105.515C21.9609 104.427 21.9609 104.427 23.0505 104.427C24.5317 104.427 24.5317 104.427 24.5317 105.906C24.5317 106.847 24.6541 106.712 23.736 106.725C23.5646 106.725 23.3932 106.725 23.2341 106.725Z" fill="#100F0E"/>
<path d="M126.519 98.2914C125.233 98.2914 125.233 98.2914 125.233 97.0448C125.233 95.9936 125.233 95.9937 126.409 95.9937C127.792 95.9937 127.792 95.9936 127.792 97.3259C127.792 98.2914 127.792 98.2914 126.825 98.2914C126.715 98.2914 126.617 98.2914 126.519 98.2914Z" fill="#100F0E"/>
<path d="M118.195 95.9937C119.419 95.9937 119.419 95.9936 119.419 97.1181C119.419 98.2914 119.419 98.2914 118.171 98.2914C116.824 98.2914 116.824 98.2914 116.824 97.0325C116.824 95.9937 116.824 95.9937 117.889 95.9937C117.987 95.9937 118.097 95.9937 118.195 95.9937Z" fill="#100F0E"/>
<path d="M31.5962 98.2914C30.3721 98.2914 30.3721 98.2914 30.3721 97.167C30.3721 95.9936 30.3721 95.9937 31.5473 95.9937C32.9306 95.9937 32.9306 95.9936 32.9306 97.3259C32.9306 98.2914 32.9306 98.2914 31.9635 98.2914C31.8411 98.2914 31.7187 98.2914 31.5962 98.2914Z" fill="#100F0E"/>
<path d="M23.1974 98.2914C21.9609 98.2914 21.9609 98.2914 21.9609 97.1059C21.9609 95.9936 21.9609 95.9937 23.1484 95.9937C24.5317 95.9937 24.5317 95.9936 24.5317 97.3259C24.5317 98.2914 24.5317 98.2914 23.5646 98.2914C23.4422 98.2914 23.3198 98.2914 23.1974 98.2914Z" fill="#100F0E"/>
<path d="M122.443 104.427C123.704 104.427 123.704 104.427 123.704 105.698C123.704 106.725 123.704 106.725 122.663 106.725C121.157 106.725 121.157 106.725 121.157 105.368C121.157 104.427 121.157 104.427 122.443 104.427Z" fill="#0D0C0C"/>
<path d="M27.5446 106.725C26.2959 106.725 26.2959 106.725 26.2959 105.478C26.2959 104.427 26.2959 104.427 27.4099 104.427C28.8422 104.427 28.8422 104.427 28.8422 105.832C28.8422 106.859 28.9524 106.712 27.973 106.725C27.8261 106.725 27.6915 106.725 27.5446 106.725Z" fill="#0D0C0C"/>
<path d="M122.479 95.9936C123.703 95.9936 123.703 95.9936 123.703 97.1791C123.703 98.2913 123.703 98.2913 122.565 98.2913C121.157 98.2913 121.157 98.2913 121.157 96.898C121.157 96.8613 121.157 96.8125 121.157 96.7758C121.047 96.1525 121.28 95.8713 121.928 95.9813C122.112 96.018 122.296 95.9936 122.479 95.9936Z" fill="#0D0C0B"/>
<path d="M27.5445 98.2914C26.2959 98.2914 26.2959 98.2914 26.2959 97.0448C26.2959 95.9936 26.2959 95.9937 27.4711 95.9937C28.8422 95.9937 28.8422 95.9937 28.8422 97.277C28.8422 98.2914 28.8422 98.2914 27.5445 98.2914Z" fill="#0D0C0B"/>
<path d="M23.2341 110.917C21.9609 110.917 21.9609 110.917 21.9609 109.707C21.9609 108.644 21.9609 108.644 23.0872 108.644C24.5317 108.644 24.5317 108.644 24.5317 110.037C24.5317 110.905 24.5317 110.905 23.6626 110.905C23.5157 110.917 23.381 110.917 23.2341 110.917Z" fill="#0C0C0B"/>
<path d="M31.6457 110.916C30.3604 110.916 30.3604 110.916 30.3604 109.731C30.3604 108.655 30.3604 108.655 31.5111 108.655C32.9311 108.655 32.9311 108.655 32.9311 110.024C32.9311 110.916 32.9311 110.916 32.013 110.916C31.8906 110.916 31.7681 110.916 31.6457 110.916Z" fill="#0C0C0B"/>
<path d="M118.121 110.917C116.823 110.917 116.823 110.917 116.823 109.621C116.823 109.524 116.835 109.414 116.823 109.316C116.737 108.79 116.933 108.583 117.484 108.631C117.986 108.68 118.5 108.656 119.002 108.631C119.32 108.619 119.443 108.741 119.418 109.059C119.406 109.243 119.418 109.426 119.418 109.609C119.418 110.917 119.418 110.917 118.121 110.917Z" fill="#0C0C0B"/>
<path d="M126.482 102.483C125.233 102.483 125.233 102.483 125.233 101.212C125.233 100.222 125.233 100.222 126.225 100.222C127.792 100.222 127.792 100.222 127.792 101.628C127.792 102.483 127.792 102.483 126.911 102.483C126.764 102.483 126.617 102.483 126.482 102.483Z" fill="#0C0C0B"/>
<path d="M118.121 102.483C116.823 102.483 116.823 102.483 116.823 101.2C116.823 101.115 116.835 101.041 116.823 100.956C116.725 100.381 116.933 100.149 117.545 100.21C118.047 100.259 118.561 100.235 119.063 100.222C119.32 100.222 119.43 100.32 119.418 100.577C119.406 100.785 119.418 100.98 119.418 101.188C119.418 102.483 119.418 102.483 118.121 102.483Z" fill="#0C0C0B"/>
<path d="M31.6207 102.483C30.3721 102.483 30.3721 102.483 30.3721 101.261C30.3721 100.222 30.3721 100.222 31.4371 100.222C32.9428 100.222 32.9428 100.222 32.9428 101.567C32.9428 102.483 32.9428 102.483 32.0492 102.483C31.9023 102.483 31.7554 102.483 31.6207 102.483Z" fill="#0C0C0B"/>
<path d="M23.2345 102.483C21.9736 102.483 21.9736 102.483 21.9736 101.212C21.9736 100.222 21.9736 100.222 22.9775 100.222C24.5322 100.222 24.5322 100.222 24.5322 101.554C24.5322 102.483 24.5322 102.483 23.6018 102.483C23.4794 102.483 23.357 102.483 23.2345 102.483Z" fill="#0C0C0B"/>
<path d="M126.482 110.916C125.233 110.916 125.233 110.916 125.233 109.706C125.233 108.655 125.233 108.655 126.409 108.655C127.792 108.655 127.792 108.655 127.792 110C127.792 110.916 127.792 110.916 126.849 110.916C126.727 110.916 126.604 110.916 126.482 110.916Z" fill="#0C0C0B"/>
<path d="M126.507 94.0501C125.233 94.0501 125.233 94.0501 125.233 92.8524C125.233 91.7769 125.233 91.7769 126.458 91.7769C127.804 91.7769 127.804 91.7769 127.804 93.0968C127.804 94.0379 127.804 94.0379 126.886 94.0379C126.739 94.0501 126.617 94.0501 126.507 94.0501Z" fill="#0C0C0B"/>
<path d="M118.134 94.0502C116.824 94.0502 116.824 94.0502 116.824 92.828C116.824 91.7891 116.824 91.7891 117.963 91.7891C119.419 91.7891 119.419 91.7891 119.419 93.2435C119.419 94.1968 119.53 94.0379 118.624 94.0624C118.452 94.0502 118.293 94.0502 118.134 94.0502Z" fill="#0C0C0B"/>
<path d="M31.633 94.0502C30.3721 94.0502 30.3721 94.0502 30.3721 92.9135C30.3721 91.7891 30.3721 91.7891 31.535 91.7891C32.9306 91.7891 32.9306 91.7891 32.9306 93.1824C32.9306 94.0502 32.9306 94.0502 32.0614 94.0502C31.9145 94.0502 31.7799 94.0502 31.633 94.0502Z" fill="#0C0C0B"/>
<path d="M23.2218 94.0502C21.9609 94.0502 21.9609 94.0502 21.9609 92.7791C21.9609 91.7891 21.9609 91.7891 22.9648 91.7891C24.5195 91.7891 24.5195 91.7891 24.5195 93.1335C24.5195 94.0502 24.5195 94.0502 23.5891 94.0502C23.4667 94.0502 23.3443 94.0502 23.2218 94.0502Z" fill="#0C0C0B"/>
<path d="M27.5323 110.916C26.2959 110.916 26.2959 110.916 26.2959 109.743C26.2959 108.655 26.2959 108.655 27.4466 108.655C28.8422 108.655 28.8422 108.655 28.8422 109.926C28.8422 110.916 28.8422 110.916 27.8383 110.916C27.7404 110.916 27.6425 110.916 27.5323 110.916Z" fill="#0A0A0A"/>
<path d="M122.369 102.483C121.157 102.483 121.157 102.483 121.157 101.285C121.157 100.222 121.157 100.222 122.271 100.222C123.704 100.222 123.704 100.222 123.704 101.64C123.704 102.63 123.814 102.459 122.871 102.483C122.7 102.483 122.541 102.483 122.369 102.483Z" fill="#0A0A0A"/>
<path d="M27.5445 102.483C26.2959 102.483 26.2959 102.483 26.2959 101.249C26.2959 100.222 26.2959 100.222 27.4466 100.222C28.8422 100.222 28.8422 100.222 28.8422 101.493C28.8422 102.483 28.8422 102.483 27.8383 102.483C27.7404 102.483 27.6425 102.483 27.5445 102.483Z" fill="#1B1611"/>
<path d="M122.394 110.916C121.157 110.916 121.157 110.916 121.157 109.743C121.157 108.655 121.157 108.655 122.308 108.655C123.704 108.655 123.704 108.655 123.704 109.926C123.704 110.916 123.704 110.916 122.7 110.916C122.602 110.916 122.504 110.916 122.394 110.916Z" fill="#0A0A0A"/>
<path d="M122.394 94.0502C121.157 94.0502 121.157 94.0502 121.157 92.8768C121.157 91.7891 121.157 91.7891 122.308 91.7891C123.704 91.7891 123.704 91.7891 123.704 93.0602C123.704 94.0502 123.704 94.0502 122.7 94.0502C122.602 94.0502 122.504 94.0502 122.394 94.0502Z" fill="#0A0A0A"/>
<path d="M27.5323 94.0502C26.2959 94.0502 26.2959 94.0502 26.2959 92.8768C26.2959 91.7891 26.2959 91.7891 27.4466 91.7891C28.8299 91.7891 28.8299 91.7891 28.8299 93.0724C28.8299 94.0502 28.8299 94.0502 27.8261 94.0502C27.7404 94.0502 27.6303 94.0502 27.5323 94.0502Z" fill="#0A0A0A"/>
<path d="M128.159 77.159C127.987 76.5479 127.975 75.949 128.159 75.3379C128.379 75.949 128.33 76.5601 128.159 77.159Z" fill="#754824"/>
<path d="M128.172 58.2268C128.025 58.0313 128.025 57.8357 128.172 57.6279C128.172 57.8235 128.172 58.0313 128.172 58.2268Z" fill="#663F1F"/>
<path d="M78.0294 63.3115C79.78 63.3115 81.5306 63.3115 83.2934 63.3115C83.6851 63.3115 84.0646 63.3481 84.4319 63.4948C85.2276 63.8004 86.0478 64.057 86.8313 64.3993C90.6996 66.0981 93.1113 69.0681 94.2498 73.077C95.7555 78.3692 95.5352 83.6003 93.5765 88.7459C93.0133 90.237 92.1319 91.5203 90.9935 92.6203C90.2467 93.3414 89.2918 93.6348 88.288 93.7937C87.4311 93.9281 86.6966 94.2459 86.1212 94.9181C85.0807 96.1159 83.7341 96.6292 82.1549 96.6292C79.3148 96.6292 76.487 96.617 73.6469 96.6414C72.6675 96.6537 71.6882 96.6537 70.7578 96.3114C69.3133 95.7981 68.285 94.7959 67.4648 93.5248C65.7999 90.9581 65.0042 88.0981 64.5635 85.1281C64.0004 81.2537 63.9636 77.3792 64.7716 73.5415C65.298 71.0481 66.0447 68.6404 67.4158 66.4526C68.7991 64.2404 70.7456 63.1159 73.3898 63.287C74.9323 63.3726 76.487 63.3359 78.0294 63.3115Z" fill="#0A0A0A"/>
<path d="M57.1325 72.0254C57.059 72.6365 56.7285 72.991 56.2633 73.3088C53.1417 75.411 52.0399 78.491 52.1623 82.1088C52.248 84.9321 53.4599 87.2177 55.59 89.051C55.8104 89.2343 56.0552 89.3932 56.1531 89.6743C56.2388 89.9188 56.4836 90.2121 56.3 90.4077C56.1409 90.5788 55.7981 90.4688 55.541 90.4443C55.284 90.4199 55.1003 90.261 54.9045 90.1143C52.5785 88.3054 51.3176 85.8854 50.9749 83.001C50.6199 79.9943 51.1707 77.1832 52.9825 74.6777C53.7048 73.6754 54.6229 72.881 55.6267 72.1721C56.0919 71.8421 56.5816 71.9399 57.1325 72.0254Z" fill="#0B0B0B"/>
<path d="M53.9857 81.3631C54.0592 78.4175 55.112 75.9486 57.5236 74.1275C57.9398 73.8097 58.3683 73.6508 58.8824 73.7608C59.164 73.8219 59.2864 73.8831 59.164 74.2253C58.9681 74.7631 58.5642 75.0931 58.1357 75.3986C56.6544 76.4619 55.7853 77.9164 55.4425 79.6764C54.8671 82.6219 55.7118 85.1275 57.8419 87.2297C57.8909 87.2664 57.9398 87.303 57.9888 87.3397C58.3316 87.6453 58.5519 88.0364 58.5029 88.4886C58.4907 88.6475 57.4012 88.4642 57.1319 88.2564C55.7853 87.1808 54.8794 85.8119 54.4019 84.1619C54.1326 83.2697 53.9612 82.3286 53.9857 81.3631Z" fill="#0B0B0B"/>
<path d="M57.7686 81.2412C57.7686 79.8601 58.2093 78.4668 59.1519 77.2446C59.3477 76.9879 59.5681 76.7679 59.9108 76.6579C60.6208 76.4257 60.731 76.5112 60.6086 77.2323C60.5596 77.5257 60.3883 77.7457 60.2169 77.9779C58.6132 80.3001 58.6255 82.5734 60.2903 84.8712C60.5841 85.2867 60.78 85.739 60.6086 86.2034C60.5352 86.4112 59.5925 86.0201 59.2498 85.6045C58.2215 84.3945 57.7686 82.9768 57.7686 81.2412Z" fill="#0B0B0B"/>
<path d="M122.234 72.6735C124.462 72.6491 126.58 75.1913 125.306 77.599C124.878 78.4057 124.902 78.4301 124.303 77.7457C123.091 76.3768 121.903 74.9835 120.679 73.6268C120.312 73.2235 120.446 73.0891 120.875 72.9424C121.34 72.7957 121.817 72.7346 122.234 72.6735Z" fill="#F1891A"/>
<path d="M121.891 79.6153C120.508 79.6397 119.467 79.0164 118.806 77.7697C118.158 76.5353 118.549 75.3987 119.137 74.2864C119.272 74.042 119.369 74.0787 119.541 74.262C120.875 75.802 122.21 77.342 123.544 78.8697C123.801 79.1631 123.764 79.3097 123.373 79.3953C122.895 79.5053 122.43 79.6275 121.891 79.6153Z" fill="#F1891A"/>
<path d="M118.623 57.2976C118.721 56.2709 119.198 55.1587 120.483 54.5476C121.83 53.9243 123.066 54.2054 124.205 55.0609C125.196 55.8065 125.172 55.8432 124.034 56.3076C122.503 56.9309 120.985 57.5542 119.455 58.1654C118.61 58.5198 118.61 58.5198 118.623 57.2976Z" fill="#F1891A"/>
<path d="M125.54 57.1387C125.76 58.8865 124.952 60.4142 123.508 61.0498C122.039 61.6976 120.447 61.2942 119.333 59.9987C119.199 59.8398 119.003 59.6931 119.346 59.5465C121.402 58.7398 123.459 57.9453 125.54 57.1387Z" fill="#F18A1A"/>
<path d="M78.7639 80.2267C78.7394 83.8323 78.0906 87.4378 76.646 90.8601C76.0952 92.1556 75.2994 93.3167 74.2956 94.319C72.8144 95.7979 71.0515 95.7123 69.6927 94.0867C67.8197 91.8501 66.6935 89.2834 66.265 86.399C65.959 84.3945 65.555 82.3901 65.506 80.3489C65.4081 76.01 65.9467 71.7934 68.089 67.9067C68.6154 66.9533 69.2398 66.0733 70.06 65.3645C71.2352 64.3378 72.594 64.2522 73.8549 65.1567C75.5443 66.3789 76.4869 68.1267 77.1357 70.0334C78.2252 73.3211 78.7516 76.6823 78.7639 80.2267Z" fill="#7AB9E6"/>
<path d="M81.6896 83.2821C81.1999 83.0743 80.8326 82.8421 80.4287 82.7565C80.0002 82.6587 79.9635 82.4265 79.9757 82.0599C79.988 80.7399 80.0002 79.4076 79.9757 78.0876C79.9635 77.7087 80.0981 77.4887 80.4164 77.3176C80.8449 77.0854 81.2489 76.8165 81.6896 76.5354C81.6161 76.4865 81.5916 76.4499 81.5671 76.4376C80.1838 76.0343 79.4983 75.1543 79.4004 73.6876C79.3514 72.8076 79.0943 71.9276 78.8617 71.0721C78.7026 70.5098 78.9352 70.4487 79.3759 70.461C79.7799 70.4732 80.2083 70.5221 80.5266 70.1921C80.6613 70.0576 80.9918 69.9721 80.8326 69.7154C80.6857 69.471 80.5021 69.1776 80.1226 69.2265C79.9635 69.251 79.8043 69.2876 79.633 69.2998C78.874 69.3365 78.2741 69.0309 77.8701 68.3954C77.4784 67.7843 77.1724 67.1121 76.7806 66.4887C76.4011 65.8776 75.9604 65.291 75.4463 64.5576C76.597 64.5576 77.6253 64.5576 78.6536 64.5576C80.0002 64.5576 81.3468 64.5576 82.6811 64.6432C83.5381 64.7043 84.2358 65.0587 84.8602 65.621C86.4516 67.051 87.4065 68.8843 88.0063 70.8887C88.8142 73.6143 89.1815 76.401 89.2794 79.2487C89.3896 82.5732 88.9856 85.8121 87.9206 88.9654C87.2963 90.811 86.2924 92.461 85.1785 94.0376C84.444 95.0765 83.2932 95.3332 82.0935 95.3454C80.1226 95.3576 78.1395 95.321 76.1686 95.3332C75.6054 95.3332 75.6054 95.211 75.8625 94.771C76.5358 93.6832 77.1846 92.571 77.8089 91.4587C78.115 90.921 78.5557 90.6521 79.1678 90.7254C79.8656 90.811 80.3797 90.5176 80.9061 90.0776C80.3919 89.6743 79.8656 89.3565 79.1923 89.4421C78.776 89.5032 78.7883 89.2832 78.8495 88.9776C79.1188 87.621 79.4004 86.2643 79.6452 84.9076C79.7186 84.4799 79.9268 84.2232 80.3063 84.0399C80.7347 83.8565 81.1509 83.5876 81.6896 83.2821Z" fill="#7AB9E6"/>
<path d="M88.1899 92.5103C91.4462 84.0892 91.4462 75.7292 88.043 67.3447C89.5977 67.3936 90.5771 68.127 91.2259 69.4103C92.8663 72.6858 93.9436 76.0958 93.9558 79.7992C93.9681 83.3803 93.3805 86.7903 91.4462 89.8825C91.2136 90.2492 90.9321 90.567 90.724 90.9336C90.1608 91.8747 89.3406 92.3514 88.1899 92.5103Z" fill="#7AB9E6"/>
<path d="M73.9403 83.5508C73.8913 83.893 73.7199 84.1497 73.3282 84.1497C72.9732 84.1497 72.7528 83.9541 72.7283 83.5997C72.7038 83.2085 72.9364 82.9763 73.3037 82.9519C73.6709 82.9274 73.8791 83.1719 73.9403 83.5508Z" fill="#1A1C1D"/>
<path d="M73.9409 85.8371C73.8797 86.2038 73.6961 86.4482 73.3044 86.436C72.9616 86.4238 72.7413 86.2282 72.729 85.8615C72.7168 85.4704 72.9249 85.2504 73.3044 85.2382C73.7083 85.226 73.8675 85.4949 73.9409 85.8371Z" fill="#1A1B1C"/>
<path d="M70.6971 85.2378C71.0276 85.2867 71.2602 85.4822 71.2602 85.8367C71.2602 86.2156 71.0276 86.4478 70.6359 86.4356C70.2809 86.4234 70.0605 86.2034 70.0605 85.8489C70.0605 85.47 70.2931 85.2622 70.6971 85.2378Z" fill="#18191A"/>
<path d="M73.3036 79.6031C72.9486 79.5542 72.7038 79.3709 72.7282 78.9798C72.7405 78.5887 72.9731 78.3931 73.3526 78.4053C73.7198 78.4175 73.9034 78.662 73.9156 78.992C73.9401 79.3587 73.6953 79.5665 73.3036 79.6031Z" fill="#1A1B1D"/>
<path d="M70.6599 79.6035C70.3049 79.5668 70.0601 79.3835 70.0601 79.0291C70.0478 78.6502 70.2682 78.4057 70.6599 78.4057C71.0272 78.3935 71.2475 78.6257 71.2597 78.9679C71.2842 79.3346 71.0394 79.5424 70.6599 79.6035Z" fill="#18191A"/>
<path d="M73.3294 76.0952C73.7211 76.1563 73.9537 76.3763 73.9292 76.743C73.9047 77.1097 73.6721 77.3297 73.2804 77.3053C72.9376 77.2808 72.7295 77.0608 72.7295 76.7063C72.7295 76.3152 72.9988 76.1563 73.3294 76.0952Z" fill="#1A1C1E"/>
<path d="M73.9414 72.1237C73.9047 72.4781 73.7333 72.7226 73.3783 72.7348C72.9988 72.7592 72.754 72.5515 72.7418 72.1604C72.7295 71.7937 72.9254 71.5859 73.2804 71.5493C73.6843 71.5126 73.8557 71.7815 73.9414 72.1237Z" fill="#1A1B1D"/>
<path d="M70.6227 71.5493C71.0144 71.5738 71.2592 71.7815 71.2592 72.1605C71.2592 72.5027 71.0389 72.7349 70.6839 72.7471C70.3289 72.7594 70.084 72.5516 70.0596 72.2093C70.0351 71.8304 70.2432 71.5982 70.6227 71.5493Z" fill="#18191A"/>
<path d="M70.7079 87.5352C71.0629 87.5352 71.271 87.7552 71.2588 88.1463C71.2465 88.5007 71.014 88.6963 70.659 88.7085C70.2917 88.7207 70.0714 88.5007 70.0591 88.1585C70.0469 87.7796 70.2428 87.5474 70.7079 87.5352Z" fill="#171919"/>
<path d="M70.5375 80.6909C71.0516 80.7153 71.2597 80.9109 71.2597 81.2653C71.2597 81.6565 71.0149 81.8642 70.6354 81.852C70.2682 81.8398 70.0478 81.6198 70.0601 81.2653C70.0601 80.9109 70.2682 80.6787 70.5375 80.6909Z" fill="#171819"/>
<path d="M71.2723 76.6941C71.2356 77.0607 71.0519 77.293 70.6602 77.3052C70.293 77.3052 70.0848 77.0852 70.0604 76.7552C70.0359 76.3763 70.2685 76.1319 70.6357 76.1074C70.9907 76.0952 71.2233 76.3152 71.2723 76.6941Z" fill="#181A1B"/>
<path d="M70.6844 73.8467C71.0516 73.8711 71.272 74.0667 71.2597 74.4211C71.2597 74.8122 71.0149 75.02 70.6354 75.0078C70.2682 74.9955 70.0478 74.7755 70.0601 74.4211C70.0601 74.0667 70.2804 73.8344 70.6844 73.8467Z" fill="#171819"/>
<path d="M71.2712 83.551C71.2222 83.9177 71.0386 84.1499 70.6469 84.1499C70.2919 84.1499 70.0715 83.9177 70.0593 83.5877C70.0348 83.2088 70.2796 82.9643 70.6469 82.9521C71.0019 82.9399 71.2345 83.1721 71.2712 83.551Z" fill="#181A1B"/>
<path d="M75.8248 85.2378C76.1921 85.2622 76.4247 85.4211 76.4492 85.7878C76.4737 86.1667 76.2778 86.4234 75.886 86.4356C75.4943 86.4479 75.2739 86.2278 75.2739 85.8367C75.2617 85.4822 75.482 85.2867 75.8248 85.2378Z" fill="#191A1B"/>
<path d="M68.7128 85.8488C68.6883 86.2398 68.4802 86.4476 68.0885 86.4354C67.7335 86.4232 67.5254 86.2032 67.5376 85.8365C67.5499 85.4454 67.7702 85.2254 68.1497 85.2499C68.5169 85.2621 68.7005 85.4821 68.7128 85.8488Z" fill="#181A1B"/>
<path d="M75.8508 82.9399C76.2303 82.9888 76.4629 83.1844 76.4506 83.5755C76.4384 83.9299 76.218 84.1377 75.863 84.1499C75.4958 84.1499 75.2876 83.9422 75.2632 83.5877C75.2509 83.1966 75.4835 82.9888 75.8508 82.9399Z" fill="#181A1C"/>
<path d="M73.341 87.5352C73.696 87.5352 73.9286 87.7429 73.9164 88.1218C73.9164 88.464 73.696 88.6963 73.341 88.6963C72.9493 88.7085 72.7167 88.4885 72.729 88.0974C72.729 87.7674 72.9248 87.5474 73.341 87.5352Z" fill="#191A1C"/>
<path d="M73.2314 80.7031C73.6966 80.6909 73.9292 80.8987 73.9292 81.2898C73.9292 81.6321 73.7211 81.8643 73.3538 81.8765C72.9621 81.8887 72.7295 81.6687 72.7295 81.2898C72.7295 80.9232 72.9254 80.7031 73.2314 80.7031Z" fill="#181A1B"/>
<path d="M76.4501 78.968C76.4257 79.3591 76.2298 79.5913 75.8381 79.5913C75.483 79.5791 75.2627 79.3713 75.2627 79.0169C75.2627 78.638 75.483 78.4058 75.8748 78.4058C76.2298 78.4058 76.4134 78.6258 76.4501 78.968Z" fill="#191A1B"/>
<path d="M68.7123 79.0414C68.6633 79.408 68.4552 79.6036 68.1002 79.5913C67.7084 79.5669 67.5126 79.3347 67.5493 78.9436C67.5738 78.577 67.8064 78.3936 68.1614 78.4058C68.5531 78.4181 68.7245 78.6625 68.7123 79.0414Z" fill="#181A1B"/>
<path d="M76.4501 76.7429C76.4134 77.0851 76.2176 77.3051 75.8625 77.3051C75.4708 77.3051 75.2627 77.0851 75.2627 76.694C75.2627 76.3274 75.4953 76.1196 75.8381 76.1196C76.2176 76.1074 76.4379 76.3396 76.4501 76.7429Z" fill="#191A1C"/>
<path d="M73.2187 73.8462C73.7083 73.8584 73.9164 74.0662 73.9286 74.4084C73.9409 74.7873 73.7083 75.0195 73.3166 75.0195C72.9249 75.0073 72.7168 74.7751 72.729 74.3962C72.7535 74.0295 72.9738 73.8462 73.2187 73.8462Z" fill="#181A1B"/>
<path d="M68.1135 82.9399C68.493 83.0133 68.7378 83.1966 68.7134 83.5999C68.6889 83.9666 68.4808 84.1621 68.1257 84.1499C67.734 84.1377 67.5381 83.8932 67.5503 83.5144C67.5503 83.1355 67.8074 83.001 68.1135 82.9399Z" fill="#161718"/>
<path d="M68.7128 76.7063C68.6883 77.073 68.5169 77.293 68.1496 77.3052C67.7579 77.3174 67.5498 77.0974 67.5376 76.7063C67.5253 76.3396 67.7579 76.1196 68.0884 76.1074C68.4679 76.1074 68.7005 76.3152 68.7128 76.7063Z" fill="#161718"/>
<path d="M75.7028 80.7036C76.2292 80.6914 76.4372 80.9114 76.4495 81.2781C76.4617 81.6325 76.2536 81.8403 75.8864 81.8525C75.4947 81.8647 75.2744 81.657 75.2744 81.2658C75.2744 80.9358 75.458 80.7158 75.7028 80.7036Z" fill="#111112"/>
<path d="M68.1257 80.6909C68.5052 80.7031 68.7133 80.8865 68.7133 81.2898C68.7133 81.6687 68.4807 81.8398 68.1379 81.8642C67.7462 81.8764 67.5381 81.6565 67.5381 81.2654C67.5503 80.9109 67.7462 80.7031 68.1257 80.6909Z" fill="#111111"/>
<path d="M76.4491 74.4333C76.4124 74.8 76.2288 75.02 75.8738 75.02C75.482 75.02 75.2617 74.8122 75.2739 74.4211C75.2739 74.0666 75.4943 73.8589 75.8493 73.8467C76.2288 73.8344 76.4124 74.0666 76.4491 74.4333Z" fill="#111112"/>
<path d="M68.7134 74.3723C68.7134 74.8001 68.493 74.9957 68.1258 75.0079C67.7708 75.0201 67.5627 74.8124 67.5504 74.4457C67.5382 74.0912 67.7096 73.859 68.0768 73.8346C68.4563 73.8223 68.6767 74.0057 68.7134 74.3723Z" fill="#111111"/>
<path d="M84.6523 68.7622C85.2154 68.97 85.5826 69.3367 85.8275 69.8989C87.1496 72.9055 87.5658 76.0955 87.7004 79.3344C87.7127 79.7622 87.4311 80.0433 87.223 80.3611C87.1006 80.5444 87.0149 80.4589 86.8925 80.3489C86.6354 80.0922 86.4151 79.8111 86.3783 79.42C86.2682 78.3077 86.109 77.1955 86.0233 76.0833C85.8642 74.1889 85.3868 72.3678 84.689 70.6078C84.4564 69.9844 84.4197 69.3855 84.6523 68.7622Z" fill="#0B0B0B"/>
<path d="M84.2363 90.518C84.2731 90.3836 84.3098 90.2491 84.3587 90.1147C84.8852 88.428 85.4238 86.7535 85.938 85.0669C86.0114 84.8224 86.0971 84.5902 86.3175 84.468C86.5011 84.3702 86.697 84.0524 86.8683 84.2235C87.052 84.4069 87.2846 84.6758 87.1744 85.0302C86.6113 86.888 86.0481 88.758 85.4728 90.6158C85.436 90.7502 85.3748 90.9091 85.2769 90.9825C85.0688 91.1413 84.7872 91.3125 84.5546 91.2147C84.322 91.1169 84.3098 90.7747 84.2363 90.518Z" fill="#0B0C0B"/>
</svg>
