<svg width="69" height="43" viewBox="0 0 69 43" fill="none" xmlns="http://www.w3.org/2000/svg">
<path d="M11.1451 9.73797C11.1451 11.4138 11.0103 12.8206 10.7356 13.9637C10.4609 15.1068 10.0566 16.0274 9.51238 16.7257C8.97332 17.4239 8.30988 17.9256 7.51684 18.2308C6.729 18.536 5.81675 18.6911 4.79047 18.6911C3.84195 18.6911 3.03855 18.6549 2.3751 18.5773C1.71165 18.5049 1.06375 18.3756 0.431396 18.1946V1.28652C1.06375 1.10549 1.71165 0.97618 2.3751 0.903768C3.03855 0.831357 3.84713 0.789978 4.79047 0.789978C5.82193 0.789978 6.729 0.945147 7.51684 1.25031C8.30469 1.55547 8.96814 2.05718 9.51238 2.75543C10.0514 3.45369 10.4609 4.36918 10.7356 5.51741C11.0051 6.65531 11.1451 8.06216 11.1451 9.73797ZM8.15438 9.73797C8.15438 8.34663 8.07145 7.18805 7.90559 6.27256C7.73972 5.3519 7.51166 4.62779 7.2214 4.09505C6.93114 3.5623 6.57868 3.1899 6.16403 2.97784C5.74937 2.76061 5.29325 2.65716 4.79566 2.65716H3.42729V16.8291H4.79566C5.29325 16.8291 5.74937 16.7205 6.16403 16.5084C6.57868 16.2912 6.93114 15.9188 7.2214 15.3912C7.51166 14.8637 7.73972 14.1344 7.90559 13.2137C8.07145 12.2827 8.15438 11.1293 8.15438 9.73797Z" fill="#F0891A"/>
<path d="M16.9961 1.03729V18.4419H14.0054V1.03729H16.9961Z" fill="#F0891A"/>
<path d="M23.325 14.0869L22.2313 18.4368H19.1162L23.5997 1.03214H27.3368L31.8203 18.4368H28.7052L27.6115 14.0869H23.325ZM25.5175 5.01477H25.419L23.7241 12.1008H27.1865L25.5175 5.01477Z" fill="#F0891A"/>
<path d="M36.9256 16.4506H43.0314V18.4419H33.9401V1.03729H36.9308V16.4506H36.9256Z" fill="#F0891A"/>
<path d="M50.1325 0.783844C50.9981 0.783844 51.7807 0.939011 52.4857 1.24417C53.1906 1.54934 53.7918 2.05105 54.2894 2.7493C54.787 3.44755 55.1757 4.36304 55.4453 5.51128C55.72 6.65435 55.8547 8.06637 55.8547 9.73701C55.8547 11.4128 55.72 12.8197 55.4453 13.9627C55.1706 15.1058 54.787 16.0265 54.2894 16.7247C53.7918 17.423 53.1906 17.9247 52.4857 18.2298C51.7807 18.535 50.9929 18.6902 50.1325 18.6902C49.2513 18.6902 48.4583 18.535 47.7534 18.2298C47.0485 17.9247 46.4472 17.423 45.9496 16.7247C45.452 16.0265 45.0685 15.111 44.8041 13.9627C44.5398 12.8197 44.405 11.4128 44.405 9.73701C44.405 8.0612 44.5398 6.65435 44.8041 5.51128C45.0685 4.36821 45.452 3.44755 45.9496 2.7493C46.4472 2.05105 47.0485 1.55451 47.7534 1.24417C48.4583 0.939011 49.2513 0.783844 50.1325 0.783844ZM50.1325 16.9471C50.4798 16.9471 50.8167 16.8385 51.1432 16.6264C51.4646 16.4092 51.76 16.0316 52.014 15.4834C52.2731 14.9351 52.4805 14.2007 52.636 13.2697C52.7915 12.3438 52.8744 11.1646 52.8744 9.73701C52.8744 8.30947 52.7966 7.13537 52.636 6.20436C52.4805 5.27853 52.268 4.5389 52.014 3.99064C51.7548 3.44238 51.4646 3.06481 51.1432 2.84757C50.8218 2.63034 50.4849 2.52689 50.1325 2.52689C49.7852 2.52689 49.4483 2.63551 49.1218 2.84757C48.8004 3.06481 48.5049 3.44238 48.251 3.99064C47.9918 4.5389 47.7845 5.27336 47.629 6.20436C47.4735 7.13537 47.3906 8.30947 47.3906 9.73701C47.3906 11.1646 47.4683 12.3387 47.629 13.2697C47.7845 14.1955 47.9918 14.9351 48.251 15.4834C48.5101 16.0316 48.8004 16.4092 49.1218 16.6264C49.4483 16.8385 49.7852 16.9471 50.1325 16.9471Z" fill="#F0891A"/>
<path d="M68.5692 18.1885C68.1857 18.323 67.6414 18.4367 66.9365 18.535C66.2316 18.6333 65.4023 18.685 64.4589 18.685C63.3653 18.685 62.4167 18.5454 61.6185 18.2609C60.8203 17.9816 60.162 17.5006 59.6385 16.8178C59.115 16.1403 58.7315 15.2248 58.4827 14.0714C58.2339 12.918 58.1095 11.4749 58.1095 9.73185C58.1095 7.99397 58.2339 6.54574 58.4827 5.39233C58.7315 4.23892 59.0995 3.32343 59.5919 2.64587C60.0843 1.9683 60.6907 1.48728 61.4216 1.20281C62.1524 0.923509 62.9973 0.778687 63.9613 0.778687C64.8425 0.778687 65.6303 0.830408 66.3301 0.92868C67.0298 1.02695 67.5689 1.14592 67.9472 1.27522V2.64069H64.7077C64.1739 2.64069 63.6918 2.74931 63.2512 2.96137C62.8107 3.17861 62.4271 3.55101 62.1057 4.07858C61.7844 4.61132 61.5304 5.33544 61.3594 6.2561C61.1831 7.17676 61.1002 8.33017 61.1002 9.7215C61.1002 11.1128 61.1935 12.2714 61.3749 13.1921C61.5563 14.1127 61.8155 14.8369 62.1472 15.3696C62.4789 15.9023 62.8832 16.2747 63.3549 16.4868C63.8266 16.704 64.3656 16.8075 64.9617 16.8075H65.5837V8.99221H68.5744V18.1885H68.5692Z" fill="#F0891A"/>
<path d="M3.28667 40.5895H9.12297V42.4929H0.425537V25.8538H9.12297V27.7571H3.28667V32.8673H8.4077V34.7707H3.28667V40.5895V40.5895Z" fill="#F0891A"/>
<path d="M13.6531 25.8538L15.9181 32.0346L18.1832 25.8538H21.1635L18.064 33.938L21.5212 42.4981H18.5408L15.9181 35.7224L13.2954 42.4981H10.3151L13.7723 33.938L10.6727 25.8538H13.6531Z" fill="#F0891A"/>
<path d="M26.2795 42.4929H23.4183V26.0917C24.0196 25.9158 24.6416 25.7969 25.2739 25.7245C25.9115 25.6521 26.6786 25.6158 27.5856 25.6158C28.5705 25.6158 29.4153 25.7245 30.1202 25.9469C30.8252 26.1693 31.4057 26.5158 31.8618 26.9917C32.3127 27.4675 32.6496 28.083 32.8622 28.833C33.0747 29.5881 33.1835 30.4933 33.1835 31.5536C33.1835 32.6811 33.0799 33.6328 32.8725 34.419C32.6652 35.2052 32.3542 35.8414 31.9447 36.3327C31.5301 36.8241 31.0221 37.181 30.4209 37.4034C29.8144 37.6258 29.1095 37.7344 28.3009 37.7344C28.2076 37.7344 28.0729 37.7241 27.907 37.7086C27.7411 37.693 27.5597 37.6724 27.3731 37.6465C27.1814 37.6206 26.9896 37.5999 26.7874 37.5741C26.5905 37.5482 26.4194 37.5224 26.2743 37.4913V42.4929H26.2795ZM27.5908 35.8362C28.0366 35.8362 28.4305 35.769 28.7674 35.6345C29.1095 35.5 29.3946 35.2724 29.6278 34.9466C29.8559 34.6207 30.0321 34.1863 30.1513 33.638C30.2706 33.0897 30.3276 32.3967 30.3276 31.5588C30.3276 30.7519 30.2706 30.0795 30.1513 29.5519C30.0321 29.0192 29.8559 28.5951 29.6278 28.2796C29.3998 27.964 29.1095 27.7365 28.7674 27.602C28.4253 27.4675 28.0314 27.4003 27.5908 27.4003H26.2795V35.8414H27.5908V35.8362Z" fill="#F0891A"/>
<path d="M38.5483 40.5895H44.3846V42.4929H35.6871V25.8538H44.3846V27.7571H38.5483V32.8673H43.6693V34.7707H38.5483V40.5895Z" fill="#F0891A"/>
<path d="M56.7721 31.3208C56.7721 32.1277 56.7099 32.8208 56.5804 33.4001C56.4508 33.9794 56.2746 34.4707 56.0465 34.8742C55.8184 35.2776 55.5385 35.6138 55.212 35.8828C54.8855 36.1517 54.533 36.3741 54.1494 36.55L57.3682 42.4929H54.1494L51.4075 37.1448H49.8577V42.4929H46.9966V26.0917C47.5978 25.9158 48.2198 25.7969 48.8522 25.7245C49.4897 25.6521 50.2568 25.6158 51.1639 25.6158C52.1487 25.6158 52.9936 25.7245 53.6985 25.9365C54.4034 26.1486 54.9839 26.49 55.44 26.9451C55.891 27.4054 56.2279 27.9951 56.4404 28.714C56.6685 29.4381 56.7721 30.3071 56.7721 31.3208ZM51.1743 35.2414C51.62 35.2414 52.0139 35.1793 52.3509 35.05C52.6929 34.9207 52.978 34.7035 53.2113 34.3983C53.4393 34.088 53.6156 33.6846 53.7348 33.188C53.854 32.6863 53.911 32.0656 53.911 31.3208C53.911 30.576 53.854 29.9554 53.7348 29.4537C53.6156 28.9519 53.4393 28.5485 53.2113 28.2433C52.9832 27.933 52.6929 27.7158 52.3509 27.5916C52.0088 27.4623 51.6148 27.4003 51.1743 27.4003H49.8629V35.2466H51.1743V35.2414Z" fill="#F0891A"/>
<path d="M58.3219 25.8538H68.5639V27.7571H64.8735V42.4981H62.0124V27.7571H58.3219V25.8538V25.8538Z" fill="#F0891A"/>
</svg>
