<svg width="85" height="10" viewBox="0 0 85 10" fill="none" xmlns="http://www.w3.org/2000/svg">
<path d="M0.63916 0.695801C4.82692 0.695801 4.59152 8.60151 9.01055 8.60151C13.4296 8.60151 13.1983 0.695801 17.3819 0.695801C21.5656 0.695801 21.3343 8.60151 25.7533 8.60151C30.1724 8.60151 29.9411 0.695801 34.1247 0.695801C38.3083 0.695801 38.0771 8.60151 42.4961 8.60151C46.9151 8.60151 46.6839 0.695801 50.8675 0.695801C55.0553 0.695801 54.8199 8.60151 59.2389 8.60151C63.6579 8.60151 63.4266 0.695801 67.6103 0.695801C71.7939 0.695801 71.5626 8.60151 75.9817 8.60151C80.4007 8.60151 80.1694 0.695801 84.3531 0.695801" stroke="white" stroke-miterlimit="10"/>
</svg>
